<svg width="25" height="25" viewBox="0 0 25 25" fill="none" xmlns="http://www.w3.org/2000/svg">
<path d="M17.0354 22.8892H8.04546C6.32546 22.8892 5.03547 22.4292 4.23547 21.5192C3.43547 20.6092 3.12546 19.2892 3.33546 17.5792L4.23547 10.0792C4.49547 7.86916 5.05547 5.88916 8.95547 5.88916H16.1554C20.0454 5.88916 20.6054 7.86916 20.8754 10.0792L21.7754 17.5792C21.9754 19.2892 21.6754 20.6192 20.8754 21.5192C20.0454 22.4292 18.7654 22.8892 17.0354 22.8892ZM8.94546 7.38916C6.06546 7.38916 5.92546 8.52915 5.71546 10.2492L4.81547 17.7492C4.66547 19.0192 4.84546 19.9492 5.35546 20.5192C5.86546 21.0892 6.76546 21.3792 8.04546 21.3792H17.0354C18.3154 21.3792 19.2154 21.0892 19.7254 20.5192C20.2354 19.9492 20.4154 19.0192 20.2654 17.7492L19.3654 10.2492C19.1554 8.51915 19.0254 7.38916 16.1354 7.38916H8.94546Z" fill="#5B5B5B"/>
<path d="M16.545 8.88916C16.135 8.88916 15.795 8.54916 15.795 8.13916V4.63916C15.795 3.55916 15.125 2.88916 14.045 2.88916H11.045C9.96504 2.88916 9.29504 3.55916 9.29504 4.63916V8.13916C9.29504 8.54916 8.95504 8.88916 8.54504 8.88916C8.13504 8.88916 7.79504 8.54916 7.79504 8.13916V4.63916C7.79504 2.72916 9.13504 1.38916 11.045 1.38916H14.045C15.955 1.38916 17.295 2.72916 17.295 4.63916V8.13916C17.295 8.54916 16.955 8.88916 16.545 8.88916Z" fill="#5B5B5B"/>
<path d="M20.955 17.9203H8.54504C8.13504 17.9203 7.79504 17.5803 7.79504 17.1703C7.79504 16.7604 8.13504 16.4203 8.54504 16.4203H20.955C21.365 16.4203 21.705 16.7604 21.705 17.1703C21.705 17.5803 21.365 17.9203 20.955 17.9203Z" fill="#5B5B5B"/>
</svg>
