<svg width="304" height="37" viewBox="0 0 304 37" fill="none" xmlns="http://www.w3.org/2000/svg">
<g clip-path="url(#clip0_37_802)">
<path fill-rule="evenodd" clip-rule="evenodd" d="M9.25091 36.2817L0 1.57577H6.10909L13.2073 28.2228L20.8291 1.57577H26.5309L34.2109 28.3993L41.3673 1.57577H47.4764L38.1673 36.2817H31.1273L23.68 10.3405L16.2909 36.2817H9.25091ZM51.6655 1.57577H57.4836V36.2817H51.6655V1.57577ZM69.8182 30.8111H83.8982V36.2817H64.1164V1.57577H69.8182V30.8111ZM101.76 1.63459C106.531 1.63459 110.487 3.34048 113.571 6.63459C116.713 9.92871 118.342 14.0464 118.342 18.9287C118.342 23.7522 116.771 27.8699 113.571 31.2816C110.429 34.5758 106.473 36.2817 101.76 36.2817H88.1455V1.57577L101.76 1.63459ZM101.76 30.8699C105.018 30.8699 107.695 29.7522 109.731 27.5169C111.825 25.2817 112.873 22.3993 112.873 18.9875C112.873 15.5169 111.825 12.6934 109.731 10.4581C107.695 8.22283 105.018 7.10518 101.76 7.10518H93.8473V30.8699H101.76ZM148.887 26.3405C148.887 29.164 147.898 31.5169 145.862 33.3993C143.825 35.2817 141.44 36.2228 138.473 36.2228H123.636V1.51695H137.367C140.218 1.51695 142.604 2.45812 144.582 4.28165C146.56 6.10518 147.549 8.3993 147.549 11.1052C147.549 14.164 146.327 16.4581 144.058 18.2228C147.084 19.8699 148.887 22.7522 148.887 26.3405ZM129.396 6.92871V16.0464H137.484C139.985 16.0464 141.905 14.0464 141.905 11.4581C141.905 8.86989 139.985 6.86989 137.484 6.86989H129.396V6.92871ZM138.531 30.9287C141.149 30.9287 143.244 28.8111 143.244 26.1052C143.244 23.3993 141.149 21.2817 138.531 21.2817H129.396V30.9287H138.531ZM160 30.8111H175.36V36.2817H154.356V1.57577H175.127V7.04636H160V16.0464H173.847V21.4581H160V30.8111ZM200.145 36.2817L192.815 23.6346H186.124V36.2817H180.422V1.57577H194.327C197.469 1.57577 200.087 2.63459 202.182 4.86989C204.335 6.98753 205.44 9.63459 205.44 12.7522C205.44 17.164 202.705 21.2228 198.575 22.8111L206.429 36.2817H200.145ZM186.124 6.92871V18.5169H194.269C197.295 18.5169 199.68 15.9287 199.68 12.6934C199.68 9.51695 197.236 6.86989 194.269 6.86989H186.124V6.92871ZM230.516 36.2817L223.185 23.6346H216.495V36.2817H210.793V1.57577H224.64C227.782 1.57577 230.4 2.63459 232.495 4.86989C234.647 6.98753 235.753 9.63459 235.753 12.7522C235.753 17.164 233.018 21.2228 228.887 22.8111L236.8 36.2817H230.516ZM216.495 6.92871V18.5169H224.64C227.665 18.5169 230.051 15.9287 230.051 12.6934C230.051 9.45812 227.607 6.86989 224.64 6.86989H216.495V6.92871ZM240.989 1.57577H246.691V36.2817H240.989V1.57577ZM259.025 30.8111H274.385V36.2817H253.382V1.57577H274.153V7.04636H259.025V16.0464H272.873V21.4581H259.025V30.8111ZM278.342 28.3993L283.229 25.5169C284.625 29.4581 287.476 31.3405 291.84 31.3405C296.145 31.3405 298.298 29.5169 298.298 26.7522C298.298 25.2817 297.716 24.2817 296.553 23.5758C295.447 22.8111 293.353 21.9875 290.385 21.1052C287.069 20.1052 285.44 19.4581 283.113 17.9287C280.902 16.3405 279.738 14.0464 279.738 10.9287C279.738 7.86989 280.844 5.45812 282.996 3.63459C285.207 1.81106 287.825 0.928711 290.909 0.928711C296.436 0.928711 300.742 3.81106 302.953 8.57577L298.182 11.3405C296.727 8.164 294.284 6.51695 290.909 6.51695C287.593 6.51695 285.498 8.22283 285.498 10.8111C285.498 13.3405 287.185 14.5758 292.48 16.2228C293.818 16.6346 294.749 16.9875 295.331 17.2228C295.971 17.3993 296.785 17.8111 297.891 18.2228C298.996 18.6346 299.869 19.164 300.393 19.6346C302.255 21.1052 304.175 23.4581 303.942 26.7522C303.942 29.8699 302.836 32.3993 300.567 34.2228C298.356 36.0464 295.389 36.9287 291.724 36.9287C285.033 36.9287 280.145 33.6934 278.342 28.3993Z" fill="#AE119C"/>
</g>
<defs>
<clipPath id="clip0_37_802">
<rect width="304" height="36" fill="white" transform="translate(0 0.928711)"/>
</clipPath>
</defs>
</svg>
