<svg width="212" height="48" viewBox="0 0 212 48" fill="none" xmlns="http://www.w3.org/2000/svg">
<g clip-path="url(#clip0_37_804)">
<path fill-rule="evenodd" clip-rule="evenodd" d="M25.5681 1.04615C15.8417 -0.0113519 6.52306 5.27615 2.27141 14.2061C-1.98024 23.1361 -0.174747 33.7699 6.75602 40.7612C13.6868 47.7524 24.2286 49.6324 33.0231 45.3436C41.8758 41.1136 47.1176 31.7137 46.1275 21.9024C45.0209 10.9161 36.4593 2.22115 25.5681 1.04615ZM24.811 36.5899C19.5692 37.2949 14.4439 34.5336 12.1143 29.7749C9.78459 25.0161 10.7165 19.2586 14.4439 15.4399C18.1714 11.6799 23.8791 10.6811 28.6549 13.0311C33.3725 15.3811 36.1099 20.5512 35.4692 25.8387C34.6538 31.4787 30.3439 35.8849 24.811 36.5899ZM58.5329 1.98615C56.9022 1.98615 55.3879 2.7499 54.3395 3.98365C53.2912 5.27615 52.9417 6.92115 53.2329 8.5074C53.7571 11.0924 56.0868 12.7961 58.7077 12.7961H73.734L50.3791 44.0512C49.622 45.0499 50.3209 46.5187 51.6022 46.5187H88.2362C90.7989 46.5187 93.1868 44.7561 93.711 42.2299C94.0604 40.6437 93.6527 38.9399 92.6044 37.7062C91.556 36.4724 90.0417 35.7087 88.411 35.7087H70.1231L93.478 4.5124C94.2351 3.4549 93.5362 1.98615 92.2549 1.98615H58.5329ZM205.011 2.10365C202.507 2.69115 200.759 4.9824 200.818 7.5674V25.7212L171.697 2.33865C170.707 1.51615 169.192 2.2799 169.192 3.5724V40.9961C169.134 43.5811 170.881 45.8724 173.386 46.4599C174.958 46.8124 176.647 46.4011 177.929 45.4024C179.21 44.3449 179.967 42.8174 179.967 41.1724V22.8424L209.088 46.2249C210.078 47.0474 211.592 46.2836 211.592 44.9911V7.4499C211.592 5.8049 210.835 4.21865 209.554 3.2199C208.273 2.1624 206.584 1.75115 205.011 2.10365ZM129.18 11.7974C141.469 11.7974 150.671 18.3774 150.671 24.2524C150.671 30.1274 141.469 36.7074 129.18 36.7074C116.891 36.7074 107.631 30.1274 107.631 24.2524C107.689 18.3774 116.891 11.7974 129.18 11.7974ZM129.18 0.928648C111.358 0.928648 96.9143 11.3862 96.9143 24.2524C96.9143 37.1187 111.358 47.5761 129.18 47.5761C147.002 47.5761 161.446 37.1187 161.446 24.2524C161.446 11.3862 147.002 0.928648 129.18 0.928648Z" fill="#0069FF"/>
</g>
<defs>
<clipPath id="clip0_37_804">
<rect width="212" height="47" fill="white" transform="translate(0 0.928711)"/>
</clipPath>
</defs>
</svg>
