<svg width="25" height="25" viewBox="0 0 25 25" fill="none" xmlns="http://www.w3.org/2000/svg">
<path d="M12.8348 21.7893C12.5248 21.7893 12.2248 21.7493 11.9748 21.6593C8.15484 20.3493 2.08484 15.6993 2.08484 8.82926C2.08484 5.32926 4.91484 2.48926 8.39484 2.48926C10.0848 2.48926 11.6648 3.14926 12.8348 4.32926C14.0048 3.14926 15.5848 2.48926 17.2748 2.48926C20.7548 2.48926 23.5848 5.33926 23.5848 8.82926C23.5848 15.7093 17.5148 20.3493 13.6948 21.6593C13.4448 21.7493 13.1448 21.7893 12.8348 21.7893ZM8.39484 3.98926C5.74484 3.98926 3.58484 6.15926 3.58484 8.82926C3.58484 15.6593 10.1548 19.4593 12.4648 20.2493C12.6448 20.3093 13.0348 20.3093 13.2148 20.2493C15.5148 19.4593 22.0948 15.6693 22.0948 8.82926C22.0948 6.15926 19.9348 3.98926 17.2848 3.98926C15.7648 3.98926 14.3548 4.69926 13.4448 5.92926C13.1648 6.30926 12.5248 6.30926 12.2448 5.92926C11.3148 4.68926 9.91484 3.98926 8.39484 3.98926Z" fill="#5B5B5B"/>
</svg>
