<svg width="47" height="55" viewBox="0 0 47 55" fill="none" xmlns="http://www.w3.org/2000/svg">
<g clip-path="url(#clip0_37_619)">
<path d="M46.4086 16.8916C46.2903 16.8916 46.172 16.8514 46.0931 16.771C45.9354 16.6503 41.9136 13.876 37.9312 7.52301C37.8918 7.4828 35.1317 2.93924 30.8733 2.21549C28.5864 1.81341 26.2206 2.57737 23.8943 4.50737L23.5394 4.82904L23.1451 4.54758C20.8188 2.61758 18.453 1.85361 16.1661 2.2557C11.8683 2.97945 9.10822 7.4828 9.10822 7.52301C5.08641 13.9162 1.10403 16.6905 0.906878 16.8112C0.630871 17.0122 0.276006 16.9318 0.078858 16.6503C-0.0788601 16.3287 -1.05647e-06 15.9668 0.276006 15.806C0.315435 15.7658 4.25839 13.0718 8.12248 6.91988C8.24077 6.71884 11.198 1.89382 15.969 1.08965C18.4925 0.64736 21.0554 1.41132 23.5394 3.34133C26.0235 1.41132 28.5864 0.64736 31.1099 1.08965C35.8809 1.93403 38.8381 6.75905 38.9564 6.96009C42.8205 13.112 46.724 15.806 46.7634 15.8462C47.0394 16.0472 47.1183 16.4091 46.9211 16.6905C46.8029 16.8112 46.6057 16.8916 46.4086 16.8916Z" fill="#20A0D8"/>
<path d="M43.2148 17.2133C40.297 17.2133 36.078 16.4895 32.9631 12.9512C32.8054 12.7903 29.0596 8.64887 23.776 11.182L23.5394 11.3026L23.2634 11.1418C17.9404 8.60866 14.1158 12.8708 14.0763 12.911C8.9505 18.7412 0.828013 16.9318 0.473147 16.8514C0.157711 16.771 -0.0394365 16.4493 0.0394226 16.1276C0.118282 15.806 0.433718 15.6049 0.749154 15.6854C0.828013 15.6854 8.51677 17.4143 13.2089 12.1068C13.2483 12.0666 17.5461 7.28178 23.5394 9.93554C29.5327 7.28178 33.8305 12.0666 33.87 12.1068C38.5226 17.3741 46.2508 15.6854 46.3297 15.6854C46.6451 15.6049 46.9606 15.806 47.0394 16.1276C47.1183 16.4493 46.9211 16.771 46.6057 16.8514C46.4086 16.8916 45.1074 17.2133 43.2148 17.2133Z" fill="#20A0D8"/>
<path d="M12.4597 29.7583C12.3414 29.7583 12.2626 29.7181 12.1443 29.6778C10.1334 28.3912 8.35905 26.6622 6.86072 24.5714C3.70636 20.1082 0.197134 16.8111 0.157704 16.7709C-0.078873 16.5297 -0.078873 16.1678 0.118275 15.9265C0.354852 15.6853 0.709718 15.6853 0.946295 15.8863C0.985724 15.9265 4.57381 19.3041 7.80703 23.8878C9.18707 25.858 10.8825 27.4664 12.7357 28.6726C13.0117 28.8335 13.0906 29.2355 12.9329 29.517C12.854 29.6376 12.6569 29.7583 12.4597 29.7583Z" fill="#20A0D8"/>
<path d="M34.5797 29.718C34.3825 29.718 34.1854 29.6376 34.0671 29.4366C33.9094 29.1551 33.9882 28.7932 34.2643 28.5922C36.1174 27.3859 37.7735 25.7776 39.1535 23.8074C42.3867 19.2236 45.9748 15.8461 46.0143 15.8059C46.2508 15.5646 46.6451 15.6048 46.8423 15.8461C47.0789 16.0873 47.0394 16.4894 46.8028 16.6905C46.7634 16.7307 43.2542 20.0278 40.0998 24.4909C38.6409 26.5818 36.8666 28.2705 34.8557 29.5572C34.8163 29.6778 34.698 29.718 34.5797 29.718Z" fill="#20A0D8"/>
<path d="M12.1048 20.9125C12.026 20.9125 11.9471 20.9125 11.8683 20.8723C10.8431 20.43 9.81794 19.9073 8.8322 19.3042C6.46643 17.8969 4.65267 17.1329 4.65267 17.1329C4.33723 17.0123 4.21894 16.6504 4.33723 16.3287C4.45552 16.0071 4.81039 15.8864 5.12582 16.0071C5.20468 16.0473 7.01844 16.8112 9.46307 18.2587C10.4094 18.8217 11.3951 19.3444 12.3809 19.7465C12.6963 19.8671 12.8146 20.229 12.6963 20.5506C12.578 20.7919 12.3414 20.9125 12.1048 20.9125Z" fill="#20A0D8"/>
<path d="M35.0923 20.8321C34.8557 20.8321 34.6586 20.7115 34.5403 20.4702C34.422 20.1485 34.5403 19.8269 34.8557 19.666C35.7626 19.264 36.6695 18.7815 37.5369 18.2587C39.9815 16.8112 41.7953 16.0473 41.8742 16.0071C42.1896 15.8864 42.505 16.0473 42.6627 16.3287C42.781 16.6504 42.6233 16.9721 42.3473 17.1329C42.3473 17.1329 40.4941 17.8969 38.1678 19.3042C37.2215 19.8671 36.2752 20.3496 35.3683 20.7919C35.2894 20.7919 35.2106 20.8321 35.0923 20.8321Z" fill="#20A0D8"/>
<path d="M21.8834 40.2929C21.844 40.2929 21.7651 40.2929 21.7257 40.2527C19.9119 39.73 17.4279 38.3629 15.8507 34.9451C15.7324 34.7441 12.9329 29.1953 13.4849 21.4753C13.6821 18.9824 15.1804 16.7709 17.3096 15.8863C19.2416 15.0822 21.3314 15.3636 23.4606 16.6905C25.5898 15.3636 27.6795 15.0822 29.6116 15.8863C31.7802 16.7709 33.2785 18.9824 33.4362 21.4753C33.6334 24.3301 33.3968 27.2251 32.7265 30.0799C32.6477 30.4016 32.3322 30.6026 32.0168 30.5222C31.7013 30.4418 31.5042 30.1201 31.5831 29.7985C32.2139 27.0643 32.4505 24.3301 32.2534 21.5959C32.0956 19.5453 30.8733 17.7761 29.1384 17.0524C27.4824 16.3688 25.6686 16.6905 23.776 17.937L23.4606 18.138L23.1451 17.937C21.2525 16.6503 19.4388 16.3688 17.7827 17.0524C16.0478 17.7761 14.8255 19.5453 14.6678 21.5959C14.1552 28.9139 16.8758 34.3822 16.9153 34.4224C18.3347 37.4783 20.4639 38.6443 22.0411 39.0866C22.3565 39.167 22.5537 39.5289 22.4354 39.8506C22.396 40.0918 22.1594 40.2929 21.8834 40.2929Z" fill="#20A0D8"/>
<path d="M23.5 31.0448C23.1846 31.0448 22.9086 30.7634 22.9086 30.4417V17.4142C22.9086 17.0925 23.1846 16.811 23.5 16.811C23.8154 16.811 24.0915 17.0925 24.0915 17.4142V30.4015C24.0915 30.7634 23.8154 31.0448 23.5 31.0448Z" fill="#20A0D8"/>
<path d="M44.2005 54.9287C43.6091 54.9287 43.0571 54.6875 42.6233 54.2452L36.9849 48.4954C36.9849 48.4954 36.6695 48.2139 36.078 47.7716C33.042 45.3993 29.375 43.9518 25.5109 43.5095C24.4857 43.3889 23.6972 42.4641 23.7366 41.3785C23.8154 39.7299 24.3675 37.2772 26.7332 34.7843C29.1779 32.3718 31.5831 31.7686 33.1997 31.6882C34.2643 31.648 35.1711 32.4522 35.2894 33.4976C35.7232 37.438 37.1821 41.1774 39.469 44.2735C39.9027 44.8766 40.2181 45.1983 40.2181 45.1983L45.8171 50.9079C46.6846 51.7925 46.6846 53.2802 45.8171 54.1648C45.3834 54.7277 44.792 54.9287 44.2005 54.9287ZM33.2785 32.9749C31.8591 33.0151 29.7299 33.5378 27.6007 35.7091C25.5109 37.8803 24.9983 40.0516 24.9195 41.4589C24.9195 41.9012 25.2349 42.263 25.6686 42.3435C29.7693 42.826 33.6334 44.3539 36.8272 46.8468C37.4581 47.3293 37.8129 47.651 37.8129 47.651L43.4514 53.4008C43.8851 53.8431 44.5554 53.8431 44.9891 53.4008C45.4228 52.9585 45.4228 52.275 44.9891 51.8327L39.3507 46.0829C39.3113 46.0426 38.9958 45.6808 38.5227 45.0374C36.078 41.7805 34.5403 37.8401 34.1066 33.6584C34.0671 33.2966 33.7123 32.9749 33.2785 32.9749Z" fill="#20A0D8"/>
<path d="M27.0881 41.4991C27.0092 41.4991 26.9304 41.4991 26.8515 41.4589C26.5361 41.3383 26.4178 40.9764 26.5361 40.6949C27.0487 39.4083 27.8373 38.1618 28.9413 37.036C30.0453 35.9101 31.2676 35.106 32.5688 34.5832C32.8842 34.4626 33.1997 34.6235 33.318 34.9049C33.4363 35.2266 33.2785 35.5483 33.0025 35.6689C31.8591 36.1112 30.7945 36.8751 29.8087 37.8401C28.8624 38.8453 28.1527 39.931 27.6795 41.097C27.5218 41.3383 27.3247 41.4991 27.0881 41.4991Z" fill="#20A0D8"/>
</g>
<defs>
<clipPath id="clip0_37_619">
<rect width="47" height="54" fill="white" transform="translate(0 0.928711)"/>
</clipPath>
</defs>
</svg>
