<svg width="51" height="42" viewBox="0 0 51 42" fill="none" xmlns="http://www.w3.org/2000/svg">
<g clip-path="url(#clip0_37_641)">
<path d="M41.4929 7.92876C41.3318 7.92876 41.1706 7.88876 41.0498 7.76876C40.8081 7.52876 40.8081 7.16876 41.0498 6.92876L45.6019 2.40876C45.8436 2.16876 46.2062 2.16876 46.4479 2.40876C46.6896 2.64876 46.6896 3.00876 46.4479 3.24876L41.936 7.72876C41.8152 7.84876 41.654 7.92876 41.4929 7.92876Z" fill="#20A0D8"/>
<path d="M39.519 5.84879C39.3981 5.84879 39.3175 5.80879 39.1967 5.76879C38.9147 5.60879 38.8341 5.20879 38.9953 4.92879L41.2915 1.20879C41.4526 0.928793 41.8555 0.848793 42.1375 1.00879C42.4194 1.16879 42.5 1.56879 42.3389 1.84879L40.0427 5.56879C39.9218 5.72879 39.7204 5.84879 39.519 5.84879Z" fill="#20A0D8"/>
<path d="M43.5071 9.84873C43.3057 9.84873 43.1043 9.72873 42.9834 9.56873C42.8223 9.28873 42.9029 8.92873 43.1849 8.72873L46.9313 6.44873C47.2133 6.28873 47.5759 6.36873 47.7773 6.64873C47.9384 6.92873 47.8578 7.28873 47.5759 7.48873L43.8294 9.76873C43.7488 9.80873 43.628 9.84873 43.5071 9.84873Z" fill="#20A0D8"/>
<path d="M9.50711 7.92872C9.34597 7.92872 9.18483 7.88872 9.06398 7.76872L4.51185 3.20872C4.27014 2.96872 4.27014 2.60872 4.51185 2.36872C4.75355 2.12872 5.11611 2.12872 5.35782 2.36872L9.90995 6.88872C10.1517 7.12872 10.1517 7.48872 9.90995 7.72872C9.82938 7.84872 9.66824 7.92872 9.50711 7.92872Z" fill="#20A0D8"/>
<path d="M11.481 5.84879C11.2796 5.84879 11.0782 5.72879 10.9573 5.56879L8.66114 1.84879C8.5 1.56879 8.58057 1.20879 8.86256 1.00879C9.14455 0.848793 9.50711 0.928793 9.70853 1.20879L12.0047 4.92879C12.1659 5.20879 12.0853 5.56879 11.8033 5.76879C11.7227 5.80879 11.6019 5.84879 11.481 5.84879Z" fill="#20A0D8"/>
<path d="M7.49289 9.84873C7.37204 9.84873 7.29147 9.80873 7.17062 9.76873L3.42417 7.48873C3.14218 7.32873 3.06161 6.92873 3.22275 6.64873C3.38389 6.36873 3.78673 6.28873 4.06872 6.44873L7.81517 8.72873C8.09716 8.88873 8.17773 9.28873 8.01659 9.56873C7.89574 9.72873 7.69432 9.84873 7.49289 9.84873Z" fill="#20A0D8"/>
<path d="M32.5095 36.8487C32.3483 36.8487 32.1872 36.8487 32.0261 36.8087C31.2204 36.6487 30.6161 36.0487 30.4147 35.2887C29.9716 33.5687 29.2062 31.0087 28.1588 28.3287C27.6351 27.0087 26.4265 26.5287 25.5 26.5287C24.5735 26.5287 23.3649 27.0087 22.8412 28.3287C21.7938 31.0087 21.0284 33.6087 20.5853 35.2887C20.3839 36.0487 19.7393 36.6487 18.9739 36.8087C18.1682 36.9687 17.3626 36.6887 16.8389 36.0887C13.0521 31.5287 12.609 26.6487 12.7298 24.1287C12.7701 23.4887 12.5687 22.9287 12.1659 22.4487C11.3199 21.4887 10.7156 20.1287 10.2725 18.4487C9.30568 14.7687 10.6753 10.8887 13.6967 8.76866C15.2275 7.68866 17.0403 7.12866 18.9336 7.12866C21.4716 7.12866 23.8483 8.16866 25.5403 9.96866C27.2322 8.12866 29.609 7.12866 32.1469 7.12866C34.0403 7.12866 35.8531 7.68866 37.3839 8.76866C40.3649 10.8487 41.7346 14.7287 40.8081 18.4087C40.3649 20.1287 39.7204 21.4887 38.8744 22.4487C38.4716 22.8887 38.2701 23.4887 38.3104 24.0887C38.391 26.6087 37.9881 31.4887 34.2014 36.0887C33.7583 36.5687 33.154 36.8487 32.5095 36.8487ZM25.5 25.2887C27.2322 25.2887 28.6825 26.2887 29.2867 27.8887C30.3341 30.6087 31.1398 33.2487 31.5829 34.9687C31.6635 35.3287 31.9455 35.5687 32.308 35.6487C32.6706 35.7287 32.9929 35.6087 33.2346 35.3287C36.7796 31.0487 37.1825 26.4887 37.0616 24.1287C37.0213 23.2087 37.3436 22.3287 37.9076 21.6487C38.7938 20.6087 39.3175 19.1287 39.5592 18.0887C40.3649 14.8887 39.1967 11.5287 36.6185 9.72866C35.2891 8.80866 33.718 8.28866 32.1066 8.28866C29.6896 8.28866 27.4739 9.36866 25.9431 11.2487L25.4597 11.8487L24.9763 11.2487C23.4858 9.36866 21.2298 8.28866 18.8128 8.28866C17.1611 8.28866 15.6303 8.76866 14.3009 9.72866C11.7227 11.5287 10.5142 14.9287 11.3602 18.1287C11.763 19.6087 12.327 20.8487 13.0118 21.6487C13.6161 22.3287 13.8981 23.2087 13.8578 24.1287C13.7772 26.4887 14.1398 31.0487 17.6848 35.2887C17.9265 35.5687 18.2488 35.6887 18.6114 35.6087C18.9739 35.5287 19.2156 35.2887 19.3365 34.9287C19.8199 33.2087 20.5853 30.5687 21.6327 27.8487C22.3175 26.2487 23.7678 25.2887 25.5 25.2887Z" fill="#20A0D8"/>
<path d="M27.0711 14.1687C26.8294 14.1687 26.5877 14.0087 26.5071 13.7687C26.064 12.5287 25.0569 11.2487 25.0569 11.2487C24.8554 10.9687 24.8957 10.6087 25.1777 10.4087C25.4597 10.2087 25.8223 10.2487 26.0237 10.5287C26.064 10.5687 27.1516 11.9687 27.6753 13.3687C27.7962 13.6887 27.6351 14.0087 27.3128 14.1287C27.1919 14.1687 27.1114 14.1687 27.0711 14.1687Z" fill="#20A0D8"/>
<path d="M33.3152 41.9287C32.7109 41.9287 32.1469 41.8487 31.5427 41.6087C29.4479 40.8887 27.6351 38.9287 26.1848 35.8087C26.064 35.5287 25.8223 35.3687 25.5 35.3687C25.218 35.3687 24.936 35.5287 24.8152 35.8087C23.3649 38.9287 21.5521 40.8887 19.4573 41.6087C18.0877 42.0887 16.6777 42.0087 15.4289 41.3687C12.0047 39.6487 10.2725 34.4487 9.42654 30.4087C9.18483 29.3287 8.21801 28.5687 7.13033 28.5687H0.604265C0.28199 28.5687 0 28.2887 0 27.9687C0 27.6487 0.28199 27.3687 0.604265 27.3687H7.09005C8.78199 27.3687 10.2322 28.5287 10.5948 30.1687C11.2393 33.2887 12.8104 38.7287 15.9526 40.2887C16.5166 40.5687 17.6445 40.9687 19.0545 40.4487C20.827 39.8487 22.4384 38.0487 23.7275 35.2487C24.0498 34.5687 24.7346 34.1287 25.5 34.1287C26.2654 34.1287 26.9502 34.5687 27.2725 35.2487C28.5616 38.0487 30.2133 39.8087 31.9455 40.4487C33.3554 40.9287 34.4834 40.5687 35.0474 40.2887C38.2299 38.6887 39.7607 33.2487 40.4052 30.1687C40.7275 28.5287 42.218 27.3687 43.91 27.3687H50.3957C50.718 27.3687 51 27.6487 51 27.9687C51 28.2887 50.718 28.5687 50.3957 28.5687H43.91C42.782 28.5687 41.8152 29.3287 41.6137 30.4087C40.7678 34.4487 39.0355 39.6487 35.6114 41.3687C34.8863 41.7287 34.1208 41.9287 33.3152 41.9287Z" fill="#20A0D8"/>
</g>
<defs>
<clipPath id="clip0_37_641">
<rect width="51" height="41" fill="white" transform="translate(0 0.928711)"/>
</clipPath>
</defs>
</svg>
