<svg width="59" height="47" viewBox="0 0 59 47" fill="none" xmlns="http://www.w3.org/2000/svg">
<g clip-path="url(#clip0_37_726)">
<path d="M22.3775 32.4131C22.3257 32.4131 22.2739 32.4131 22.2221 32.4131C21.9113 32.3109 21.7041 32.0042 21.7559 31.6464C21.7559 31.5953 21.7559 31.4931 21.7559 31.3909C21.7559 30.9309 21.5487 30.3176 21.3933 29.8064C21.2897 29.4998 21.4969 29.142 21.8077 29.0398C22.1185 28.9376 22.4811 29.142 22.5847 29.4487C22.7919 30.062 22.9991 30.8287 22.9991 31.3909C22.9991 31.5953 22.9991 31.7487 22.9473 31.902C22.8955 32.2598 22.6365 32.4131 22.3775 32.4131Z" fill="#20A0D8"/>
<path d="M26.7287 46.9288C26.4697 46.9288 26.2107 46.8777 25.9517 46.8266C25.6409 46.7243 25.4337 46.3666 25.5373 46.0599C25.6409 45.7532 26.0035 45.5488 26.3143 45.651C26.4697 45.7021 26.5733 45.7021 26.7287 45.7021C26.8323 45.7021 26.8841 45.651 26.8841 45.651C27.0913 45.3954 27.5057 45.3443 27.7647 45.5488C28.0237 45.7532 28.0755 46.1621 27.8683 46.4177C27.6611 46.6732 27.2985 46.9288 26.7287 46.9288ZM31.8051 46.9288C31.7533 46.9288 31.7533 46.9288 31.7015 46.9288C31.2353 46.8265 30.6137 46.5199 30.4583 45.4465C30.4065 45.0888 30.6655 44.7821 30.9763 44.731C31.2871 44.6799 31.6497 44.9354 31.7015 45.2421C31.7533 45.5488 31.8051 45.7021 31.9087 45.7021C32.2713 45.7532 32.4785 46.0599 32.4267 46.4177C32.3749 46.7243 32.1159 46.9288 31.8051 46.9288ZM33.6699 46.1621C33.5145 46.1621 33.3591 46.111 33.2037 45.9577C32.9447 45.7021 32.9447 45.3443 33.2037 45.0888C33.4627 44.8332 33.6699 44.5265 33.9289 44.1688C34.1361 43.8621 34.4987 43.811 34.8095 43.9643C35.1203 44.1688 35.1721 44.5266 35.0167 44.8332C34.7577 45.2932 34.4469 45.651 34.1361 45.9577C33.9807 46.111 33.8253 46.1621 33.6699 46.1621ZM24.5531 45.5488C24.3459 45.5488 24.1905 45.4466 24.0351 45.2932C23.7761 44.9354 23.5171 44.5265 23.3099 44.1177C23.1545 43.811 23.2581 43.4532 23.5689 43.2999C23.8797 43.1466 24.2423 43.2488 24.3977 43.5554C24.6049 43.9643 24.8121 44.271 25.0193 44.5777C25.2265 44.8332 25.1747 45.2421 24.8639 45.4465C24.7603 45.5488 24.6567 45.5488 24.5531 45.5488ZM27.6093 44.6288C27.2985 44.6288 27.0395 44.3732 26.9877 44.0666C26.9877 43.7599 26.9359 43.351 26.8323 42.8399C26.7805 42.4821 27.0395 42.1754 27.3503 42.1243C27.7129 42.0732 28.0237 42.3288 28.0755 42.6354C28.1791 43.1977 28.2309 43.6065 28.2309 43.9643C28.2827 44.3221 28.0237 44.5777 27.6611 44.6288C27.6611 44.6288 27.6611 44.6288 27.6093 44.6288ZM31.1835 43.8621C31.1317 43.8621 31.1317 43.8621 31.0799 43.8621C30.7173 43.811 30.5101 43.5043 30.5619 43.1977C30.6137 42.7888 30.6655 42.3288 30.7691 41.9199C30.8209 41.5621 31.1317 41.3577 31.4943 41.4088C31.8569 41.4599 32.0641 41.7665 32.0123 42.1243C31.9605 42.5843 31.8569 42.9932 31.8051 43.4021C31.7533 43.6577 31.4943 43.8621 31.1835 43.8621ZM35.4311 43.2488C35.3793 43.2488 35.2757 43.2488 35.2239 43.1977C34.9131 43.0954 34.7577 42.7377 34.8613 42.431C35.0167 42.0732 35.1203 41.6643 35.2757 41.2554C35.3793 40.9488 35.7419 40.7443 36.0527 40.8465C36.3635 40.9488 36.5707 41.3065 36.4671 41.6132C36.3117 42.0732 36.2081 42.4821 36.0527 42.891C35.8973 43.0954 35.6383 43.2488 35.4311 43.2488ZM23.0509 42.5332C22.7919 42.5332 22.5329 42.3799 22.4811 42.1243C22.3257 41.7154 22.2221 41.3065 22.1185 40.8465C22.0149 40.5399 22.2221 40.1821 22.5847 40.0799C22.8955 39.9777 23.2581 40.1821 23.3617 40.5399C23.4653 40.9488 23.5689 41.3577 23.7243 41.7666C23.8279 42.0732 23.6725 42.431 23.3099 42.5332C23.2063 42.5332 23.1027 42.5332 23.0509 42.5332ZM27.1431 41.3066C26.8323 41.3066 26.5733 41.1021 26.5215 40.7954C26.4697 40.3354 26.3661 39.9266 26.3143 39.4666C26.2625 39.1088 26.5215 38.8021 26.8841 38.8021C27.2467 38.751 27.5575 39.0065 27.5575 39.3643C27.6093 39.7732 27.6611 40.1821 27.7129 40.6421C27.7647 40.9999 27.5575 41.3065 27.1949 41.3577C27.1949 41.3065 27.1431 41.3066 27.1431 41.3066ZM31.7015 40.5399C31.6497 40.5399 31.6497 40.5399 31.5979 40.5399C31.2353 40.4888 31.0281 40.1821 31.0799 39.8243C31.1317 39.3643 31.1835 38.9554 31.2353 38.5977C31.2871 38.2399 31.5461 37.9843 31.9087 38.0354C32.2713 38.0865 32.5303 38.3421 32.4785 38.6999C32.4267 39.1088 32.3749 39.5177 32.3231 40.0288C32.2713 40.3354 32.0123 40.5399 31.7015 40.5399ZM36.3117 40.0288C36.2599 40.0288 36.2599 40.0288 36.2081 40.0288C35.8455 39.9777 35.6383 39.6199 35.6901 39.3132C35.7419 38.9043 35.8455 38.4954 35.8973 38.0865C35.9491 37.7288 36.2599 37.5243 36.5707 37.5754C36.9333 37.6265 37.1405 37.9332 37.0887 38.2399C37.0369 38.6999 36.9333 39.1088 36.8815 39.5688C36.8815 39.8243 36.6225 40.0288 36.3117 40.0288ZM22.2739 39.2621C21.9631 39.2621 21.7041 39.0577 21.6523 38.751C21.6005 38.291 21.5487 37.8821 21.4969 37.4221C21.4451 37.0643 21.7041 36.8088 22.0667 36.7577C22.4293 36.7065 22.6883 36.9621 22.7401 37.3199C22.7919 37.7288 22.8437 38.1377 22.8955 38.5977C22.9473 38.9554 22.7401 39.2621 22.3775 39.3132C22.3257 39.2621 22.3257 39.2621 22.2739 39.2621ZM26.8323 37.9843C26.4697 37.9843 26.2107 37.6777 26.2107 37.371C26.2107 36.8088 26.3143 36.3488 26.4179 35.9399C26.5215 35.6332 26.8841 35.4288 27.1949 35.531C27.5057 35.6332 27.7129 35.991 27.6093 36.2977C27.5057 36.6043 27.4539 37.0132 27.4539 37.4221C27.4539 37.7288 27.1431 37.9843 26.8323 37.9843ZM31.8051 37.2177C31.4943 37.2177 31.2353 37.0132 31.1835 36.7066C31.1317 36.2977 30.9763 35.991 30.8209 35.7354C30.6137 35.4288 30.7173 35.071 31.0281 34.8666C31.3389 34.6621 31.7015 34.7643 31.9087 35.071C32.1677 35.4799 32.3231 35.9399 32.4267 36.5021C32.4785 36.8599 32.2713 37.1665 31.9087 37.2177C31.9087 37.2177 31.8569 37.2177 31.8051 37.2177ZM36.6743 36.7066C36.6743 36.7066 36.6743 36.6554 36.6743 36.7066C36.3117 36.7066 36.0527 36.3999 36.0527 36.0421C36.0527 35.7354 36.0527 35.4799 36.0527 35.1732C36.0527 35.0199 36.0527 34.9177 36.0527 34.7643C36.0527 34.4065 36.3117 34.151 36.6743 34.151C37.0369 34.151 37.2959 34.4065 37.2959 34.7643C37.2959 34.9177 37.2959 35.071 37.2959 35.1732C37.2959 35.4799 37.2959 35.7866 37.2959 36.0932C37.2959 36.3999 37.0369 36.7066 36.6743 36.7066ZM22.0149 35.8888C21.6523 35.8888 21.3933 35.6332 21.3933 35.2754V35.1732C21.3933 34.7643 21.3933 34.3554 21.4451 33.9465C21.4451 33.5888 21.7559 33.3332 22.1185 33.3843C22.4811 33.3843 22.7401 33.691 22.6883 34.0488C22.6883 34.4066 22.6365 34.8154 22.6365 35.1732V35.2754C22.6365 35.6332 22.3775 35.8888 22.0149 35.8888ZM28.3345 35.1732C28.0755 35.1732 27.8683 35.0199 27.7647 34.7643C27.6611 34.4577 27.8165 34.0999 28.1273 33.9977C28.4899 33.8443 28.9043 33.7932 29.3705 33.7932C29.4741 33.7932 29.5777 33.7932 29.6813 33.7932C30.0439 33.7932 30.3029 34.0999 30.2511 34.4577C30.2511 34.8154 29.9403 35.071 29.5777 35.0199C29.2151 35.0199 28.8007 35.0199 28.5417 35.1221C28.4899 35.1732 28.3863 35.1732 28.3345 35.1732ZM36.5189 33.3332C36.2081 33.3332 35.9491 33.1288 35.8973 32.8221C35.8455 32.5154 35.7937 32.2599 35.7419 32.0043C35.6901 31.851 35.6901 31.6465 35.6901 31.4932C35.6901 31.1354 35.9491 30.8799 36.3117 30.8799C36.6743 30.8799 36.9333 31.1354 36.9333 31.4932C36.9333 31.5954 36.9333 31.6465 36.9333 31.7488C36.9851 32.0554 37.0887 32.3621 37.1405 32.6688C37.1923 33.0265 36.9851 33.3332 36.6225 33.3843C36.6225 33.3332 36.5707 33.3332 36.5189 33.3332ZM22.3257 32.5666C22.2739 32.5666 22.2221 32.5666 22.1703 32.5666C21.8595 32.5154 21.6005 32.1577 21.7041 31.851V31.7488C21.8077 31.4421 22.1185 31.1866 22.4811 31.2888C22.7919 31.391 23.0509 31.6465 22.9473 32.0043V32.0554V32.1066C22.8955 32.3621 22.6365 32.5666 22.3257 32.5666Z" fill="#20A0D8"/>
<path d="M36.3117 32.0554C35.9491 32.0554 35.6901 31.7999 35.6901 31.4421C35.6901 30.6243 36.0527 29.6021 36.4153 28.4776C36.6743 27.6599 36.9851 26.8421 37.1405 26.0754C37.1923 25.7688 37.5549 25.5132 37.8657 25.6154C38.1765 25.6665 38.4355 26.0243 38.3319 26.331C38.1765 27.1999 37.8657 28.0688 37.6067 28.8865C37.2441 29.9088 36.9333 30.8799 36.9333 31.4421C36.9333 31.7999 36.6743 32.0554 36.3117 32.0554Z" fill="#20A0D8"/>
<path d="M53.4056 32.4131C53.1466 32.4131 52.8876 32.2086 52.784 31.9531C52.7322 31.7997 52.7322 31.5953 52.7322 31.4419C52.7322 30.6242 53.0948 29.6019 53.4574 28.4775C53.8718 27.3019 54.2862 25.9219 54.2862 24.8997C54.2862 23.3664 53.6646 20.5042 51.3854 20.5042C50.194 20.5042 49.5724 20.7597 48.899 21.0664C48.2256 21.3731 47.5004 21.6797 46.3608 21.6797C45.2213 21.6797 44.4961 21.3731 43.8227 21.0664C43.1493 20.7597 42.5277 20.5042 41.3363 20.5042C39.5233 20.5042 38.6945 22.3442 38.4873 24.0819C38.4355 24.4397 38.1247 24.6442 37.8139 24.6442C37.4513 24.5931 37.2441 24.2864 37.2441 23.9797C37.5031 21.7308 38.7463 19.3286 41.3363 19.3286C42.7867 19.3286 43.5637 19.6864 44.2889 19.9931C44.9105 20.2486 45.4285 20.5042 46.309 20.5042C47.1896 20.5042 47.7594 20.2997 48.3292 19.9931C49.0544 19.6864 49.8832 19.3286 51.2818 19.3286C54.1308 19.3286 55.4258 22.2419 55.4258 24.9508C55.4258 26.1775 54.9596 27.6086 54.4934 28.8864C54.1308 29.9086 53.82 30.8797 53.82 31.4419C53.82 31.5442 53.82 31.5953 53.82 31.6975C53.9236 32.0042 53.7164 32.3619 53.3538 32.4131C53.5092 32.4131 53.4574 32.4131 53.4056 32.4131Z" fill="#20A0D8"/>
<path d="M49.0544 46.9287C48.8472 46.9287 48.6919 46.8776 48.5365 46.8265C48.2257 46.7242 48.0703 46.3665 48.1739 46.0598C48.2775 45.7531 48.6401 45.5998 48.9509 45.702C48.9509 45.702 49.0026 45.702 49.0544 45.702C49.2616 45.702 49.4688 45.6509 49.7278 45.5487C50.0386 45.3953 50.4012 45.4976 50.5566 45.8042C50.712 46.1109 50.6084 46.4687 50.2976 46.622C49.8832 46.8265 49.4688 46.9287 49.0544 46.9287ZM44.3407 46.7753C44.1853 46.7753 43.9781 46.7242 43.8745 46.5709C43.6673 46.3153 43.6673 45.9065 43.9263 45.702C43.9263 45.702 44.0817 45.5487 44.0817 44.9353C44.0817 44.5776 44.3925 44.322 44.7033 44.322C45.0659 44.322 45.3249 44.6287 45.3249 44.9353C45.2731 45.702 45.1177 46.2642 44.7033 46.5709C44.5997 46.7242 44.4443 46.7753 44.3407 46.7753ZM42.3723 46.4176C42.2169 46.4176 42.1133 46.3665 42.0097 46.2642C41.6471 46.0087 41.3363 45.6509 41.0255 45.1909C40.8183 44.9353 40.8701 44.5265 41.1809 44.322C41.4399 44.1176 41.8543 44.1687 42.0615 44.4753C42.3205 44.8331 42.5795 45.0887 42.8385 45.2931C43.0975 45.4976 43.1493 45.9065 42.9421 46.162C42.7349 46.3153 42.5795 46.4176 42.3723 46.4176ZM51.489 45.242C51.3854 45.242 51.23 45.1909 51.1264 45.1398C50.8156 44.9353 50.7638 44.5776 50.9192 44.2709C51.1264 43.9642 51.3336 43.6065 51.489 43.1976C51.6444 42.8909 52.007 42.7376 52.3178 42.8909C52.6286 43.0442 52.784 43.402 52.6286 43.7087C52.4214 44.1687 52.2142 44.5776 51.9552 44.9353C51.9034 45.1398 51.6962 45.242 51.489 45.242ZM48.1221 45.0376C47.7595 45.0376 47.5005 44.7309 47.5005 44.3731C47.5005 44.0153 47.5523 43.5553 47.6559 43.0442C47.7077 42.6865 48.0185 42.482 48.3811 42.5331C48.7437 42.5842 48.9509 42.8909 48.8991 43.2487C48.8473 43.7598 48.7955 44.1687 48.7437 44.4753C48.7437 44.782 48.4847 45.0376 48.1221 45.0376ZM40.5075 43.6065C40.2485 43.6065 40.0413 43.4531 39.9377 43.2487C39.7823 42.8398 39.6269 42.4309 39.4715 41.9709C39.3679 41.6642 39.5751 41.3065 39.8859 41.2042C40.1967 41.102 40.5593 41.3065 40.6629 41.6131C40.8183 42.022 40.9219 42.4309 41.0773 42.7887C41.2327 43.0953 41.0773 43.4531 40.7665 43.6065C40.6629 43.6065 40.6111 43.6065 40.5075 43.6065ZM44.5479 43.5042C44.2371 43.5042 43.9781 43.2998 43.9263 42.9931C43.8745 42.5842 43.7709 42.1753 43.7191 41.7153C43.6673 41.3576 43.8745 41.0509 44.2371 40.9998C44.5997 40.9487 44.9105 41.1531 44.9623 41.5109C45.0141 41.9709 45.1177 42.3798 45.1695 42.7887C45.2213 43.1465 44.9623 43.4531 44.6515 43.5042C44.5997 43.5042 44.5479 43.5042 44.5479 43.5042ZM52.8358 42.1753C52.784 42.1753 52.7322 42.1753 52.6804 42.1242C52.3696 42.022 52.1624 41.6642 52.266 41.3576C52.3696 40.9487 52.4732 40.5398 52.5768 40.1309C52.6804 39.8242 52.9912 39.6198 53.302 39.6709C53.6128 39.722 53.82 40.0798 53.7682 40.3865C53.6646 40.8465 53.561 41.2553 53.4056 41.6642C53.3538 42.022 53.0948 42.1753 52.8358 42.1753ZM48.5883 41.7153C48.5365 41.7153 48.5365 41.7153 48.4847 41.7153C48.1221 41.6642 47.9149 41.3576 47.9667 40.9998C48.0185 40.5909 48.1221 40.1309 48.1739 39.722C48.2257 39.3642 48.5365 39.1598 48.8473 39.2109C49.2099 39.262 49.4171 39.5687 49.3653 39.8753C49.3135 40.2842 49.2617 40.7442 49.1581 41.1531C49.1581 41.4598 48.8991 41.7153 48.5883 41.7153ZM39.5751 40.3865C39.2643 40.3865 39.0053 40.182 38.9535 39.8753C38.8499 39.4665 38.7981 39.0065 38.6945 38.5465C38.6427 38.1887 38.9017 37.882 39.2125 37.8309C39.5233 37.7798 39.8859 38.0353 39.9377 38.342C39.9895 38.7509 40.0931 39.1598 40.1449 39.5687C40.1967 39.8753 39.9895 40.2331 39.6787 40.2842C39.6269 40.3865 39.5751 40.3865 39.5751 40.3865ZM44.0299 40.182C43.7191 40.182 43.4601 39.9776 43.4083 39.6198C43.3565 39.1087 43.3047 38.6998 43.3047 38.2909C43.3047 37.9331 43.5637 37.6776 43.8745 37.6265C44.2371 37.6265 44.4961 37.882 44.5479 38.1887C44.5479 38.5465 44.5997 38.9553 44.6515 39.4153C44.7033 39.7731 44.4443 40.0798 44.1335 40.0798C44.0817 40.182 44.0299 40.182 44.0299 40.182ZM53.561 38.9042C53.5092 38.9042 53.5092 38.9042 53.4574 38.9042C53.0948 38.8531 52.8876 38.5465 52.9394 38.1887C52.9912 37.7798 53.043 37.3709 53.0948 36.9109C53.1466 36.5531 53.4056 36.2976 53.7682 36.3487C54.1308 36.3998 54.3898 36.6553 54.338 37.0131C54.2862 37.4731 54.2344 37.882 54.1826 38.342C54.1308 38.6487 53.8718 38.9042 53.561 38.9042ZM48.9509 38.342C48.5883 38.342 48.3293 38.0865 48.3293 37.7287C48.3293 37.2687 48.2775 36.8598 48.2257 36.5531C48.1739 36.1953 48.3811 35.8887 48.7437 35.8376C49.1062 35.7865 49.417 35.9909 49.4688 36.3487C49.5724 36.7576 49.5724 37.2176 49.5724 37.7287C49.5724 38.0353 49.3134 38.342 48.9509 38.342ZM39.1089 37.0642C38.7981 37.0642 38.4873 36.8087 38.4873 36.502C38.4355 36.042 38.4355 35.6331 38.4355 35.2242C38.4355 34.8665 38.6945 34.6109 39.0571 34.6109C39.4197 34.6109 39.6787 34.8665 39.6787 35.2242V35.1731C39.6787 35.582 39.6787 35.9909 39.7305 36.3998C39.7305 36.7576 39.4715 37.0642 39.1089 37.0642ZM44.0299 36.8087C43.9781 36.8087 43.9263 36.8087 43.8745 36.8087C43.5637 36.7065 43.3565 36.3998 43.4083 36.042C43.5637 35.4798 43.8227 34.9687 44.1335 34.6109C44.3925 34.3553 44.7551 34.3553 45.0141 34.5598C45.2731 34.8153 45.2731 35.1731 45.0659 35.4287C44.8587 35.6331 44.7033 35.9398 44.6515 36.2976C44.5997 36.6553 44.3407 36.8087 44.0299 36.8087ZM53.7682 35.5309C53.4056 35.5309 53.1466 35.2753 53.1466 34.9176C53.1466 34.5087 53.0948 34.0487 53.0948 33.6909C53.043 33.3331 53.302 33.0776 53.6646 33.0265C54.0272 32.9753 54.2862 33.2309 54.338 33.5887C54.3898 33.9976 54.3898 34.4576 54.3898 34.9176C54.3898 35.2242 54.1308 35.5309 53.7682 35.5309ZM47.8113 35.3265C47.7077 35.3265 47.6041 35.2753 47.5005 35.2242C47.2415 35.0709 46.9307 35.0198 46.5681 34.9687C46.2055 34.9687 45.9465 34.662 45.9465 34.3553C45.9465 33.9976 46.2573 33.742 46.5681 33.742C47.1897 33.742 47.7077 33.8953 48.1221 34.1509C48.4329 34.3042 48.4847 34.7131 48.3293 34.9687C48.2257 35.2242 48.0185 35.3265 47.8113 35.3265ZM39.2125 33.6909C39.2125 33.6909 39.1607 33.6909 39.1089 33.6909C38.7463 33.6398 38.5391 33.3331 38.5909 33.0265C38.6427 32.5665 38.7463 32.1065 38.8499 31.6976C38.9535 31.3909 39.2643 31.1865 39.6269 31.2376C39.9377 31.3398 40.1449 31.6465 40.0931 32.0042C39.9895 32.362 39.9377 32.7709 39.8859 33.2309C39.7823 33.4865 39.5233 33.6909 39.2125 33.6909Z" fill="#20A0D8"/>
<path d="M39.4197 32.4131C39.3679 32.4131 39.3161 32.4131 39.2643 32.4131C38.9535 32.3109 38.7463 32.0042 38.7981 31.6976C38.7981 31.6464 38.7981 31.5442 38.7981 31.442C38.7981 30.8287 38.4873 29.9087 38.1247 28.8864C37.8139 28.0176 37.5549 27.1487 37.3477 26.2798C37.2959 25.922 37.5031 25.6153 37.8139 25.5642C38.1765 25.5131 38.4873 25.7176 38.5391 26.0242C38.6945 26.842 39.0053 27.6598 39.2643 28.5287C39.6269 29.6531 39.9895 30.6753 39.9895 31.4931C39.9895 31.6976 39.9895 31.8509 39.9377 32.0042C39.9377 32.2598 39.7305 32.4131 39.4197 32.4131Z" fill="#20A0D8"/>
<path d="M19.3213 32.4131C19.0623 32.4131 18.8033 32.2087 18.6997 31.9531C18.4925 31.0843 18.9069 29.8576 19.3731 28.4776C19.7875 27.302 20.2019 25.922 20.2019 24.8998C20.2019 23.3665 19.5803 20.5043 17.3011 20.5043C16.1097 20.5043 15.4881 20.7598 14.8666 21.0665C14.1932 21.3731 13.468 21.6798 12.3284 21.6798C11.1888 21.6798 10.4636 21.3731 9.79017 21.0665C9.11677 20.7598 8.49517 20.5043 7.35558 20.5043C5.07638 20.5043 4.45479 23.4176 4.45479 24.8998C4.45479 25.922 4.92098 27.302 5.28358 28.4776C5.74978 29.9087 6.16418 31.0843 5.95698 31.9531C5.85338 32.2598 5.54258 32.4643 5.17998 32.4131C4.86918 32.3109 4.66199 32.0043 4.71378 31.6465C4.81738 31.1354 4.45479 29.9598 4.09219 28.8354C3.67779 27.5576 3.15979 26.1265 3.15979 24.8998C3.15979 22.1909 4.45479 19.2776 7.30378 19.2776C8.75417 19.2776 9.53117 19.6354 10.2564 19.942C10.878 20.1976 11.396 20.4531 12.2766 20.4531C13.1572 20.4531 13.727 20.2487 14.2968 19.942C15.0219 19.6354 15.8507 19.2776 17.2493 19.2776C20.0983 19.2776 21.3933 22.1909 21.3933 24.8998C21.3933 26.1265 20.9271 27.5576 20.4609 28.8354C20.0983 29.9598 19.6839 31.1354 19.8393 31.6465C19.9429 31.9531 19.7357 32.3109 19.3731 32.4131H19.3213Z" fill="#20A0D8"/>
<path d="M19.4249 33.0775C19.1141 33.0775 18.8551 32.8731 18.8033 32.5664C18.7515 32.3619 18.6997 32.1575 18.6997 31.9531C18.5961 31.6464 18.8033 31.2886 19.1659 31.2375C19.4767 31.1353 19.8393 31.3397 19.8911 31.6975C19.9429 31.9019 19.9947 32.1575 20.0465 32.3619C20.0983 32.7197 19.8911 33.0264 19.5285 33.0775C19.5285 33.0775 19.4767 33.0775 19.4249 33.0775Z" fill="#20A0D8"/>
<path d="M14.9702 46.9285C14.245 46.9285 13.727 46.5196 13.5198 45.8552C13.4162 45.5485 13.6234 45.1907 13.9342 45.0885C14.245 44.9863 14.6076 45.1907 14.7112 45.4974C14.763 45.753 14.8666 45.7019 14.9702 45.7019C15.022 45.7019 15.022 45.7019 15.0738 45.7019C15.4364 45.7019 15.6954 45.9063 15.7472 46.2641C15.799 46.6219 15.54 46.8774 15.1774 46.9285C15.0738 46.9285 15.022 46.9285 14.9702 46.9285ZM9.63478 46.9285C9.58298 46.9285 9.53118 46.9285 9.47938 46.9285C9.11678 46.9285 8.85778 46.6219 8.90958 46.2641C8.96138 45.9063 9.22038 45.7019 9.58298 45.7019C9.63478 45.7019 9.63478 45.7019 9.68658 45.7019C9.79018 45.7019 9.84198 45.7019 9.94558 45.4463C10.0492 45.1396 10.4118 44.9352 10.7226 45.0374C11.0334 45.1396 11.2406 45.4974 11.137 45.8041C10.878 46.5196 10.36 46.9285 9.63478 46.9285ZM7.76998 45.9574C7.61459 45.9574 7.40739 45.9063 7.30379 45.753C6.99299 45.4463 6.73399 45.0374 6.47499 44.5774C6.31959 44.2707 6.42319 43.913 6.68219 43.7596C6.99299 43.6063 7.35559 43.7085 7.51099 43.9641C7.71818 44.3219 7.97718 44.6796 8.18438 44.9352C8.39158 45.1907 8.39158 45.5996 8.13258 45.8041C8.08078 45.9063 7.92538 45.9574 7.76998 45.9574ZM16.835 45.9063C16.6796 45.9063 16.5242 45.8552 16.4206 45.753C16.1616 45.5485 16.1616 45.1396 16.3688 44.8841C16.576 44.6285 16.835 44.3219 17.0422 43.913C17.1976 43.6063 17.612 43.5041 17.8709 43.7085C18.1817 43.8619 18.2853 44.2707 18.0781 44.5263C17.8192 44.9863 17.5602 45.3441 17.2494 45.7019C17.1976 45.8552 17.0422 45.9063 16.835 45.9063ZM14.0896 44.2196H14.0378C13.6752 44.1685 13.468 43.8619 13.5198 43.5552C13.5716 43.1463 13.6234 42.6863 13.727 42.2774C13.7788 41.9196 14.0896 41.7152 14.4522 41.7663C14.8148 41.8174 15.022 42.1241 14.9702 42.4819C14.9184 42.9419 14.8148 43.3507 14.763 43.7596C14.6594 44.0152 14.4004 44.2196 14.0896 44.2196ZM10.5154 44.2196C10.2046 44.2196 9.94558 44.0152 9.89378 43.6574C9.84198 43.2485 9.79018 42.8396 9.68658 42.3796C9.63478 42.0219 9.84198 41.7152 10.2046 41.6641C10.5154 41.613 10.878 41.8174 10.9298 42.1752C10.9816 42.6352 11.0852 43.0441 11.137 43.453C11.1888 43.8107 10.9298 44.1174 10.619 44.1174C10.5672 44.2196 10.5154 44.2196 10.5154 44.2196ZM6.16419 42.993C5.90519 42.993 5.64619 42.8396 5.59439 42.5841C5.43899 42.1752 5.33539 41.7663 5.17999 41.3063C5.07639 40.9996 5.28359 40.6419 5.59439 40.5396C5.90519 40.4374 6.26779 40.6419 6.37139 40.9485C6.47499 41.3574 6.63039 41.7663 6.73399 42.1241C6.83759 42.4307 6.68219 42.7885 6.37139 42.8907C6.31959 42.993 6.21599 42.993 6.16419 42.993ZM18.4407 42.993C18.3889 42.993 18.2853 42.993 18.2335 42.9419C17.9228 42.8396 17.7156 42.4819 17.8709 42.1752C18.0263 41.8174 18.1299 41.4085 18.2335 40.9996C18.3371 40.693 18.6479 40.4885 19.0105 40.5907C19.3213 40.693 19.5285 40.9996 19.4249 41.3574C19.3213 41.8174 19.1659 42.2263 19.0105 42.6352C18.9587 42.8396 18.6997 42.993 18.4407 42.993ZM14.6076 40.8974C14.5558 40.8974 14.5558 40.8974 14.504 40.8974C14.1414 40.8463 13.9342 40.5396 13.986 40.1819C14.0378 39.773 14.0896 39.3641 14.1414 38.9552C14.1932 38.5974 14.4522 38.393 14.8148 38.393C15.1774 38.4441 15.3846 38.7507 15.3846 39.0574C15.3328 39.4663 15.281 39.9263 15.2292 40.3863C15.1774 40.693 14.9184 40.8974 14.6076 40.8974ZM9.99738 40.8974C9.68658 40.8974 9.42758 40.693 9.37578 40.3863C9.32398 39.9263 9.27218 39.5174 9.22038 39.0574C9.16858 38.6996 9.42758 38.4441 9.79018 38.393C10.1528 38.3419 10.4118 38.5974 10.4636 38.9552C10.5154 39.3641 10.5672 39.773 10.619 40.1819C10.6708 40.5396 10.4118 40.8463 10.101 40.8974C10.0492 40.8974 10.0492 40.8974 9.99738 40.8974ZM5.28359 39.773C4.97279 39.773 4.7138 39.5685 4.662 39.2619C4.6102 38.853 4.5066 38.393 4.4548 37.933C4.403 37.5752 4.662 37.2685 4.97279 37.2685C5.33539 37.2174 5.64619 37.473 5.64619 37.7796C5.69799 38.1885 5.74979 38.5974 5.85339 39.0063C5.90519 39.3641 5.69799 39.6707 5.33539 39.7219C5.38719 39.773 5.33539 39.773 5.28359 39.773ZM19.3213 39.7219C19.2695 39.7219 19.2695 39.7219 19.2177 39.7219C18.8551 39.6707 18.6479 39.3641 18.6997 39.0063C18.7515 38.5974 18.8551 38.1885 18.9069 37.7796C18.9587 37.4219 19.2695 37.2174 19.5803 37.2685C19.9429 37.3196 20.1501 37.6263 20.0983 37.933C20.0465 38.393 19.9947 38.8019 19.8911 39.2619C19.8393 39.5174 19.5803 39.7219 19.3213 39.7219ZM14.8148 37.5752C14.504 37.5752 14.245 37.3196 14.1932 37.013C14.1414 36.6041 14.0896 36.2463 13.9342 35.9396C13.7788 35.633 13.9342 35.2752 14.245 35.1219C14.5558 34.9685 14.9184 35.1219 15.0738 35.4285C15.2292 35.8374 15.3846 36.2974 15.4364 36.8596C15.4882 37.2174 15.2292 37.473 14.8666 37.5241C14.8666 37.5752 14.8148 37.5752 14.8148 37.5752ZM9.79018 37.5752H9.73838C9.37578 37.5241 9.16858 37.2174 9.16858 36.9107C9.22038 36.3485 9.32398 35.8885 9.53118 35.4796C9.68658 35.173 10.0492 35.0196 10.36 35.173C10.6708 35.3263 10.8262 35.6841 10.6708 35.9907C10.5672 36.2974 10.4636 36.6041 10.4118 37.0641C10.36 37.3196 10.101 37.5752 9.79018 37.5752ZM4.97279 36.4507C4.662 36.4507 4.3512 36.1952 4.3512 35.8374C4.3512 35.633 4.3512 35.4285 4.3512 35.173C4.3512 34.9174 4.3512 34.713 4.3512 34.5085C4.3512 34.1507 4.662 33.8952 4.97279 33.8952C5.33539 33.8952 5.59439 34.2019 5.59439 34.5085C5.59439 34.713 5.59439 34.9174 5.59439 35.173C5.59439 35.3774 5.59439 35.5819 5.59439 35.7863C5.59439 36.1441 5.33539 36.3996 4.97279 36.4507ZM19.6321 36.3996C19.2695 36.3996 19.0105 36.093 19.0105 35.7863C19.0105 35.5819 19.0105 35.3774 19.0105 35.2241C19.0105 35.0196 19.0105 34.7641 19.0105 34.5596C19.0105 34.2019 19.2695 33.9463 19.6321 33.9463C19.9947 33.9463 20.2537 34.2019 20.2537 34.5596C20.2537 34.8152 20.2537 35.0196 20.2537 35.2752C20.2537 35.4796 20.2537 35.6841 20.2537 35.8885C20.2537 36.1441 19.9947 36.3996 19.6321 36.3996ZM12.95 35.0707C12.8982 35.0707 12.8464 35.0707 12.8464 35.0707C12.691 35.0196 12.5356 35.0196 12.3284 35.0196C12.1212 35.0196 11.9658 35.0196 11.8104 35.0707C11.4478 35.1219 11.137 34.9174 11.0852 34.5596C11.0334 34.2019 11.2406 33.8952 11.6032 33.8441C11.8622 33.793 12.0694 33.793 12.3802 33.793C12.6392 33.793 12.8982 33.793 13.1572 33.8441C13.468 33.8952 13.727 34.253 13.6234 34.5596C13.5198 34.8663 13.2608 35.0707 12.95 35.0707Z" fill="#20A0D8"/>
<path d="M5.17998 33.0776C5.12818 33.0776 5.12818 33.0776 5.07638 33.0776C4.71378 33.0265 4.50658 32.7198 4.55838 32.362C4.61018 32.1065 4.66198 31.902 4.71378 31.6976C4.81738 31.3909 5.12818 31.1865 5.43898 31.2376C5.74978 31.3398 5.95698 31.6465 5.90518 31.9531C5.85338 32.1576 5.80158 32.362 5.80158 32.5665C5.74978 32.8731 5.49078 33.0776 5.17998 33.0776Z" fill="#20A0D8"/>
<path d="M22.0149 30.2665C21.0826 30.2665 20.3056 30.0109 19.8912 29.602C19.5804 29.2954 19.425 28.9376 19.425 28.4776C19.425 28.1198 19.684 27.8643 20.0466 27.8643C20.4092 27.8643 20.6682 28.1198 20.6682 28.4776C20.6682 28.5798 20.72 28.6309 20.7718 28.7331C20.979 28.9376 21.4451 29.0398 22.0667 29.0398C23.2063 29.0398 25.7445 28.7331 31.0281 27.302C33.2037 26.6887 35.4829 26.0754 37.6585 25.6154L37.9175 25.5643H37.9693C39.1607 25.3087 40.0931 25.1043 40.9219 24.9509C44.9105 24.2354 46.1019 24.6954 46.3609 25.2065C46.4127 25.3087 46.4645 25.462 46.4645 25.5643C46.4645 25.8198 46.6717 25.9731 46.9307 25.9731C47.1897 25.9731 47.3969 25.7687 47.3969 25.5643C47.3969 25.0531 47.1897 24.5931 46.7753 24.2865C45.3249 23.2131 41.4399 23.8776 38.2283 24.6443H38.1247C36.0527 25.1043 33.7217 25.7176 30.8727 26.4843C28.4381 27.1487 23.8279 27.9154 22.0149 28.1709C21.4452 28.2731 20.9272 27.9154 20.8236 27.4043C20.6164 26.6376 20.3574 25.5643 20.3574 24.8998C20.3574 22.1909 21.6523 19.2776 24.5013 19.2776C25.9517 19.2776 26.7287 19.6354 27.4539 19.942C28.0755 20.1976 28.5935 20.4531 29.4741 20.4531H29.6813C30.4583 20.402 30.9245 20.1976 31.4943 19.942C32.2195 19.6354 33.0483 19.2776 34.4469 19.2776C36.8297 19.2776 38.0211 21.2709 38.4355 23.3154C43.4083 22.242 46.0501 22.242 47.4487 23.3154C48.1739 23.8776 48.5883 24.6443 48.5883 25.5643C48.5883 26.4843 47.8113 27.2509 46.8789 27.2509C46.0501 27.2509 45.3767 26.6887 45.2213 25.922C44.8587 25.8198 43.7709 25.7176 41.1291 26.1776C40.3003 26.3309 39.4197 26.4843 38.2283 26.7909L37.9175 26.842C35.7937 27.3531 33.5145 27.9665 31.3389 28.5287C26.9359 29.6531 23.8279 30.2665 22.0149 30.2665ZM24.3459 20.5043C22.0667 20.5043 21.4452 23.4176 21.4452 24.8998C21.4452 25.2576 21.6005 26.0243 21.8077 26.9443C23.7243 26.6376 28.0755 25.922 30.4065 25.3087C32.9965 24.5931 35.1721 24.0309 37.1405 23.5709C36.8297 21.9865 36.0009 20.5043 34.3433 20.5043C33.1519 20.5043 32.5303 20.7598 31.8569 21.0665C31.2353 21.322 30.5619 21.6287 29.5777 21.6798H29.3187C28.1273 21.6798 27.4021 21.3731 26.8323 21.1176C26.1589 20.7598 25.5373 20.5043 24.3459 20.5043Z" fill="#20A0D8"/>
<path d="M29.5777 21.6288C29.2151 21.6288 28.9561 21.3732 28.9561 21.0154C28.9561 20.6577 29.2151 20.4021 29.5777 20.4021C29.9403 20.4021 30.1993 20.6577 30.1993 21.0154C30.1993 21.3732 29.9403 21.6288 29.5777 21.6288Z" fill="#20A0D8"/>
<path d="M27.3503 21.1176C27.1949 21.1176 27.0395 21.1176 26.9877 21.0665C26.9359 21.0665 26.8841 21.0154 26.8323 21.0154C26.5215 20.862 26.4179 20.5043 26.5733 20.1976C26.7287 19.942 27.0395 19.7887 27.2985 19.8909C27.5575 19.942 32.5303 20.3509 56.3064 1.23537L56.3582 1.18425C56.7208 0.928699 57.187 0.877588 57.6532 0.928699C58.1194 1.03092 58.482 1.28648 58.741 1.64425C59 2.00203 59.0518 2.46203 59 2.87092C58.8964 3.27981 58.6892 3.63759 58.3266 3.89314C45.8429 14.5243 38.6427 18.7665 34.7577 20.4531C34.4469 20.6065 34.0843 20.4531 33.9289 20.1465C33.7735 19.8398 33.9289 19.482 34.2397 19.3287C38.0729 17.6931 45.1695 13.502 57.446 3.02425L57.4978 2.97314C57.6014 2.92203 57.6532 2.81981 57.705 2.71759C57.705 2.61537 57.705 2.51314 57.6532 2.41092C57.6014 2.3087 57.4978 2.25759 57.3942 2.20648C57.2906 2.20648 57.187 2.20648 57.0834 2.25759C35.5865 19.5331 29.0597 21.1176 27.3503 21.1176Z" fill="#20A0D8"/>
<path d="M46.4645 32.9753C44.0299 32.8731 41.6471 32.5664 39.3161 32.0042C39.1607 31.9531 39.0571 31.9019 38.9535 31.7486C38.9535 31.7486 38.4873 31.1353 37.8657 31.1353C37.2441 31.1353 36.7779 31.7486 36.7779 31.7486C36.6743 31.8508 36.5707 31.9531 36.4153 32.0042C34.0843 32.5664 31.7015 32.8731 29.3187 32.9753C26.9359 32.9242 24.5531 32.6175 22.2739 32.0553C22.1185 32.0042 22.0149 31.9531 21.9113 31.7997C21.9113 31.7997 21.4451 31.1864 20.8235 31.1864C20.2019 31.1864 19.7875 31.7997 19.7357 31.7997C19.6321 31.9019 19.5285 32.0042 19.3731 32.0553C17.0422 32.6175 14.6594 32.9242 12.2766 33.0264C9.84198 32.9242 7.45918 32.6175 5.12819 32.0553C4.97279 32.0042 4.86919 31.9531 4.76559 31.7997C4.76559 31.7997 4.2994 31.1864 3.6778 31.1864C3.4706 31.1864 3.2634 31.2375 3.0562 31.3908C2.331 31.9019 1.5022 32.2086 0.673407 32.3619C0.310809 32.4131 9.74536e-06 32.2086 -0.0517901 31.9019C-0.10359 31.5442 0.103609 31.2375 0.414408 31.1864C1.08781 31.0331 1.7612 30.7775 2.331 30.3686C2.7454 30.0619 3.2116 29.9597 3.6778 29.9597C4.61019 29.9597 5.28359 30.573 5.59439 30.8797C7.76998 31.3908 9.99738 31.6975 12.2248 31.7486C14.4004 31.6975 16.6278 31.3908 18.8033 30.8797C19.1141 30.573 19.7875 29.9597 20.7199 29.9597C21.6523 29.9597 22.3257 30.573 22.6365 30.8797C24.8121 31.3908 27.0395 31.6975 29.2669 31.7486C31.4425 31.6975 33.6699 31.3908 35.8455 30.8797C36.1563 30.573 36.8297 29.9597 37.7621 29.9597C38.6945 29.9597 39.3679 30.573 39.6787 30.8797C41.8543 31.3908 44.0817 31.6975 46.3091 31.7486C48.4846 31.6975 50.712 31.3908 52.8876 30.8797C53.1984 30.573 53.8718 29.9597 54.8042 29.9597C55.3222 29.9597 55.8402 30.1642 56.3064 30.4708C56.7208 30.7775 57.1352 30.9819 57.6532 31.0842C57.964 31.1353 58.223 31.4931 58.1194 31.7997C58.0676 32.1064 57.705 32.3619 57.3942 32.2597C56.7208 32.1064 56.0992 31.8508 55.5812 31.4419C55.3222 31.2375 55.115 31.1864 54.856 31.1864C54.2862 31.1864 53.82 31.7997 53.82 31.7997C53.7164 31.9019 53.6128 32.0042 53.4574 32.0553C51.23 32.6175 48.8472 32.9242 46.4645 32.9753Z" fill="#20A0D8"/>
</g>
<defs>
<clipPath id="clip0_37_726">
<rect width="59" height="46" fill="white" transform="translate(0 0.928711)"/>
</clipPath>
</defs>
</svg>
