<svg width="65" height="28" viewBox="0 0 65 28" fill="none" xmlns="http://www.w3.org/2000/svg">
<g clip-path="url(#clip0_37_699)">
<path d="M33.2163 14.7178C33.1715 14.7178 33.082 14.7178 33.0372 14.6734C32.6791 14.5844 32.4552 14.2285 32.5448 13.8727C33.082 11.9155 33.9325 10.0918 35.0964 8.40153L38.0062 4.17583C39.4387 2.1297 41.7665 0.928711 44.2734 0.928711C48.4366 0.928711 51.8388 4.30927 51.8388 8.44601V12.4048C51.8388 12.7607 51.5255 13.072 51.1674 13.072C50.8092 13.072 50.4959 12.7607 50.4959 12.4048V8.44601C50.4959 5.02097 47.7204 2.26314 44.2734 2.26314C42.2142 2.26314 40.2893 3.28621 39.1253 4.93201L36.2156 9.15771C35.1412 10.7145 34.3354 12.4048 33.843 14.2285C33.7534 14.5399 33.4848 14.7178 33.2163 14.7178Z" fill="#20A0D8"/>
<path d="M47.8547 27.9287H35.9022C33.7087 27.9287 31.9181 26.1495 31.9181 23.9699V20.0556C31.9181 19.6997 32.2314 19.3884 32.5895 19.3884C32.9477 19.3884 33.261 19.6997 33.261 20.0556V23.9699C33.261 25.3933 34.4249 26.5943 35.9022 26.5943H47.8547C49.2872 26.5943 50.4959 25.4378 50.4959 23.9699V18.4988C50.4959 18.1429 50.8092 17.8315 51.1674 17.8315C51.5255 17.8315 51.8389 18.1429 51.8389 18.4988V24.0144C51.8389 26.194 50.0482 27.9287 47.8547 27.9287Z" fill="#20A0D8"/>
<path d="M14.0117 13.1165C13.6536 13.1165 13.3402 12.8052 13.3402 12.4493V8.44601C13.3402 4.30927 16.7424 0.928711 20.9056 0.928711C23.4125 0.928711 25.7403 2.1297 27.1281 4.17583L31.8733 10.9814C32.0971 11.2928 32.0076 11.6931 31.6942 11.9155C31.3808 12.1379 30.978 12.049 30.7541 11.7376L26.0537 4.93201C24.8898 3.24173 22.9649 2.26314 20.9056 2.26314C17.4587 2.26314 14.6832 5.02097 14.6832 8.44601V12.4493C14.6832 12.8496 14.3698 13.1165 14.0117 13.1165Z" fill="#20A0D8"/>
<path d="M29.2769 27.9287H17.3244C15.1308 27.9287 13.3402 26.1495 13.3402 23.9699V18.4988C13.3402 18.1429 13.6536 17.8315 14.0117 17.8315C14.3698 17.8315 14.6832 18.1429 14.6832 18.4988V24.0144C14.6832 25.4378 15.8471 26.6388 17.3244 26.6388H29.2769C30.7094 26.6388 31.918 25.4823 31.918 24.0144C31.918 23.6586 32.2314 23.3472 32.5895 23.3472C32.9477 23.3472 33.261 23.6586 33.261 24.0144C33.261 26.194 31.4704 27.9287 29.2769 27.9287Z" fill="#20A0D8"/>
<path d="M61.2397 24.5481H51.1674C50.8092 24.5481 50.4959 24.2367 50.4959 23.8809C50.4959 23.525 50.8092 23.2137 51.1674 23.2137H61.2397C62.5827 23.2137 63.657 22.1461 63.657 20.8117V11.4262C63.657 9.06868 62.5379 7.02255 60.5682 5.77708C58.688 4.57609 56.1364 4.44265 53.9876 5.42123L53.7638 5.5102C53.4057 5.64364 53.0475 5.5102 52.8685 5.19883C52.7342 4.84298 52.8685 4.48713 53.1818 4.30921L53.4057 4.22025C56.0021 3.01926 59.0014 3.19718 61.2844 4.66506C63.6123 6.17741 65 8.62387 65 11.4262V20.8117C65 22.8578 63.2989 24.5481 61.2397 24.5481Z" fill="#20A0D8"/>
<path d="M13.8326 24.548H3.76033C1.7011 24.548 0 22.8578 0 20.8116V11.4261C0 8.84624 1.11915 6.53322 3.17837 5.02086C5.41667 3.33058 8.50551 2.97474 11.281 4.04228L12.0868 4.35365C12.4449 4.48709 12.5792 4.88742 12.4449 5.19879C12.3106 5.55464 11.9077 5.68808 11.5944 5.55464L10.7886 5.24327C8.46074 4.35365 5.86433 4.62054 4.02893 6.04393C2.28306 7.33388 1.34298 9.24656 1.34298 11.4261V20.8116C1.34298 22.1461 2.41736 23.2136 3.76033 23.2136H13.8326C14.1908 23.2136 14.5041 23.525 14.5041 23.8808C14.5041 24.2367 14.1908 24.548 13.8326 24.548Z" fill="#20A0D8"/>
<path d="M43.6915 21.0787H40.0207C38.812 21.0787 37.8271 20.1001 37.8271 18.8991V14.9847C37.8271 13.7838 38.812 12.8052 40.0207 12.8052H43.6915C44.9002 12.8052 45.885 13.7838 45.885 14.9847V18.8991C45.885 20.1001 44.9002 21.0787 43.6915 21.0787ZM40.0654 14.1841C39.6178 14.1841 39.2149 14.5399 39.2149 15.0292V18.9436C39.2149 19.3884 39.573 19.7887 40.0654 19.7887H43.7362C44.1839 19.7887 44.5868 19.4329 44.5868 18.9436V15.0292C44.5868 14.5844 44.2287 14.1841 43.7362 14.1841H40.0654Z" fill="#20A0D8"/>
<path d="M59.1805 17.8314H56.2707C55.9125 17.8314 55.5992 17.5201 55.5992 17.1642C55.5992 16.8084 55.9125 16.497 56.2707 16.497H59.1805C59.449 16.497 59.6729 16.2746 59.6729 16.0077V12.894C59.6729 12.6271 59.449 12.4047 59.1805 12.4047H56.2707C56.0021 12.4047 55.7782 12.6271 55.7782 12.894V14.4509C55.7782 14.8067 55.4649 15.1181 55.1068 15.1181C54.7486 15.1181 54.4353 14.8067 54.4353 14.4509V12.894C54.4353 11.871 55.2858 11.0703 56.2707 11.0703H59.1805C60.2101 11.0703 61.0159 11.9155 61.0159 12.894V16.0077C61.0606 16.9863 60.2101 17.8314 59.1805 17.8314Z" fill="#20A0D8"/>
<path d="M8.68457 17.8314H5.81956C4.78995 17.8314 3.98416 16.9863 3.98416 16.0077V12.894C3.98416 11.871 4.83471 11.0703 5.81956 11.0703H8.72934C9.75895 11.0703 10.5647 11.9155 10.5647 12.894V14.4509C10.5647 14.8067 10.2514 15.1181 9.89325 15.1181C9.53513 15.1181 9.22177 14.8067 9.22177 14.4509V12.894C9.22177 12.6271 8.99794 12.4047 8.72934 12.4047H5.81956C5.55097 12.4047 5.32714 12.6271 5.32714 12.894V16.0077C5.32714 16.2746 5.55097 16.497 5.81956 16.497H8.72934C9.08747 16.497 9.40083 16.8084 9.40083 17.1642C9.40083 17.5201 9.08747 17.8314 8.68457 17.8314Z" fill="#20A0D8"/>
<path d="M25.0241 21.0787H21.3533C20.1446 21.0787 19.1598 20.1001 19.1598 18.8991V14.9847C19.1598 13.7838 20.1446 12.8052 21.3533 12.8052H25.0241C26.2328 12.8052 27.2176 13.7838 27.2176 14.9847V18.8991C27.1729 20.1001 26.2328 21.0787 25.0241 21.0787ZM21.3533 14.1841C20.9057 14.1841 20.5028 14.5399 20.5028 15.0292V18.9436C20.5028 19.3884 20.8609 19.7887 21.3533 19.7887H25.0241C25.4718 19.7887 25.8747 19.4329 25.8747 18.9436V15.0292C25.8747 14.5844 25.5165 14.1841 25.0241 14.1841H21.3533Z" fill="#20A0D8"/>
<path d="M38.5434 17.6535H26.5014C26.1433 17.6535 25.8299 17.3422 25.8299 16.9863C25.8299 16.6305 26.1433 16.3191 26.5014 16.3191H38.5434C38.9015 16.3191 39.2149 16.6305 39.2149 16.9863C39.2149 17.3422 38.9015 17.6535 38.5434 17.6535Z" fill="#20A0D8"/>
<path d="M45.2135 17.6536C44.9001 17.6536 44.6316 17.4757 44.542 17.1643C44.4525 16.8084 44.6763 16.4526 45.0344 16.3636L54.9277 13.8282C55.2858 13.7392 55.6439 13.9617 55.7335 14.3175C55.823 14.6734 55.5992 15.0292 55.2411 15.1182L45.3478 17.6536C45.3478 17.6091 45.2583 17.6536 45.2135 17.6536Z" fill="#20A0D8"/>
<path d="M19.8313 17.6536C19.7865 17.6536 19.7417 17.6536 19.6522 17.6536L9.71419 15.1182C9.35607 15.0292 9.13224 14.6734 9.22177 14.3175C9.3113 13.9617 9.66943 13.7392 10.0276 13.8282L19.9656 16.3636C20.3237 16.4526 20.5475 16.8084 20.458 17.1643C20.4132 17.4312 20.1446 17.6536 19.8313 17.6536Z" fill="#20A0D8"/>
</g>
<defs>
<clipPath id="clip0_37_699">
<rect width="65" height="27" fill="white" transform="translate(0 0.928711)"/>
</clipPath>
</defs>
</svg>
