<svg width="51" height="38" viewBox="0 0 51 38" fill="none" xmlns="http://www.w3.org/2000/svg">
<g clip-path="url(#clip0_37_661)">
<path d="M22.9834 37.9286C21.5135 37.9286 19.7319 37.706 18.3956 37.5279H18.3066C17.1039 37.3943 16.2131 36.3257 16.2131 35.1236C16.2576 31.4725 16.9703 25.3281 21.3799 25.3281C23.7852 25.3281 24.9432 27.4653 25.5223 29.8251C26.1013 27.4653 27.3039 25.3281 29.6646 25.3281C34.0742 25.3281 34.7869 31.4725 34.8314 35.1236C34.8314 36.3257 33.9406 37.3498 32.738 37.5279H32.6489C30.7782 37.7505 27.9721 38.1067 26.4131 37.795C26.0568 37.706 25.745 37.5279 25.5223 37.3053C25.2996 37.5279 24.9878 37.706 24.6314 37.795C24.1415 37.8841 23.607 37.9286 22.9834 37.9286ZM21.3354 26.3967C17.7275 26.3967 17.2821 32.4966 17.2376 35.1681C17.2376 35.8359 17.7275 36.4148 18.3956 36.5038H18.4847C20.1773 36.7264 22.9834 37.0826 24.3642 36.771C24.676 36.6819 24.8987 36.4148 24.9432 36.1031C24.9432 35.7914 24.9878 35.3907 24.9878 34.9455C24.9878 34.9455 24.9878 34.9455 24.9878 34.9009C24.9878 34.9009 24.9878 34.9009 24.9878 34.8564C24.9878 32.8528 24.7205 26.3967 21.3354 26.3967ZM26.0568 34.9009C26.0568 35.3462 26.0568 35.7469 26.1013 36.0586C26.1013 36.3702 26.3686 36.6374 26.6804 36.7264C28.0611 37.0381 30.8673 36.6819 32.5153 36.4593H32.6044C33.2725 36.3702 33.7624 35.7914 33.7624 35.1236C33.7179 32.4966 33.2725 26.3522 29.6646 26.3522C26.324 26.3522 26.0568 32.8528 26.0568 34.8119C26.0568 34.8564 26.0568 34.8564 26.0568 34.9009Z" fill="#20A0D8"/>
<path d="M37.4594 36.8155C36.4349 36.8155 35.5441 36.7264 35.2323 36.7264C35.0542 36.7264 34.9205 36.6374 34.8314 36.4593C34.7869 36.4148 33.9406 34.9455 33.9406 32.8083C33.9406 30.7601 35.1878 25.3281 37.9939 25.3281C40.3991 25.3281 41.6463 28.6675 41.6463 35.2571C41.6463 35.5688 41.5127 35.8359 41.29 36.0586C40.5773 36.6819 38.8847 36.8155 37.4594 36.8155ZM35.5886 35.6578C38.1721 35.8805 40.3546 35.6133 40.5328 35.2126C40.5328 29.6915 39.5528 26.3967 37.9493 26.3967C36.2122 26.3967 34.9651 30.6266 34.9651 32.8083C34.9651 34.1885 35.4105 35.2126 35.5886 35.6578Z" fill="#20A0D8"/>
<path d="M13.5852 36.8155C12.1598 36.8155 10.4672 36.6819 9.75459 36.0586C9.48734 35.8359 9.39825 35.5688 9.39825 35.2571C9.39825 28.6675 10.6454 25.3281 13.0507 25.3281C15.8568 25.3281 17.1039 30.7601 17.1039 32.8083C17.1039 34.9455 16.2576 36.4148 16.2131 36.4593C16.124 36.5929 15.9904 36.6819 15.8122 36.7264C15.4559 36.7264 14.5651 36.8155 13.5852 36.8155ZM13.0507 26.3967C11.4472 26.3967 10.4672 29.6915 10.4672 35.2571C10.6454 35.6578 13.0061 35.8805 15.4114 35.7024C15.6341 35.2571 16.0349 34.1885 16.0349 32.8083C16.0349 30.582 14.7878 26.3967 13.0507 26.3967Z" fill="#20A0D8"/>
<path d="M43.9624 36.2367C42.3144 36.2367 40.7554 34.5893 40.7109 34.5448C40.4882 34.3221 40.5327 34.0105 40.7109 33.7878C40.9336 33.5652 41.2454 33.6097 41.4681 33.7878C41.8244 34.1886 42.9825 35.1681 43.9179 35.1681C44.2297 35.1681 44.4969 35.0345 44.7642 34.8119C45.8332 33.7433 46.6349 27.9996 45.7441 25.8179C45.5659 25.4172 45.3878 25.1946 45.165 25.1946C43.4279 25.1946 41.5572 28.1332 40.9781 29.2463C40.8445 29.5135 40.5327 29.6025 40.2655 29.4689C39.9982 29.3354 39.9092 29.0237 40.0428 28.7565C40.2655 28.2668 42.4926 24.126 45.165 24.126C45.655 24.126 46.3231 24.3486 46.7685 25.4172C47.793 27.8215 47.0358 34.0995 45.5659 35.5688C45.1205 36.0141 44.586 36.2367 43.9624 36.2367Z" fill="#20A0D8"/>
<path d="M7.03755 36.2367C6.41397 36.2367 5.87947 36.0141 5.4786 35.5688C4.00873 34.0995 3.25152 27.8215 4.27598 25.4172C4.72139 24.3486 5.38952 24.126 5.87947 24.126C8.55196 24.126 10.779 28.2668 11.0017 28.7565C11.1354 29.0237 11.0463 29.3354 10.779 29.4689C10.5118 29.6025 10.2 29.5135 10.0664 29.2463C9.48733 28.1332 7.61659 25.1946 5.87947 25.1946C5.65676 25.1946 5.43406 25.4172 5.30043 25.8179C4.4096 27.9996 5.21135 33.6988 6.28035 34.8119C6.50305 35.0345 6.7703 35.1681 7.12663 35.1681C8.06201 35.1681 9.22008 34.1886 9.57642 33.7878C9.79912 33.5652 10.1109 33.5652 10.3336 33.7878C10.5563 34.0105 10.5563 34.3221 10.3336 34.5448C10.2445 34.5893 8.68559 36.1922 7.03755 36.2367C7.08209 36.2367 7.08209 36.2367 7.03755 36.2367Z" fill="#20A0D8"/>
<path d="M27.5712 14.954C27.393 14.954 27.2594 14.8649 27.1258 14.7313L25.4777 12.416L23.8742 14.7313C23.6961 14.954 23.3843 15.043 23.117 14.8649C22.8943 14.6868 22.8053 14.3751 22.9834 14.108L25.0769 11.1694C25.255 10.9022 25.745 10.9022 25.9677 11.1694L28.0612 14.108C28.2393 14.3306 28.1948 14.6868 27.9275 14.8649C27.7939 14.9094 27.7048 14.954 27.5712 14.954Z" fill="#20A0D8"/>
<path d="M25.5223 20.3859C25.2105 20.3859 24.9878 20.1632 24.9878 19.8516V19.1837C24.9878 18.872 25.2105 18.6494 25.5223 18.6494C25.8341 18.6494 26.0568 18.872 26.0568 19.1837V19.8516C26.0568 20.1632 25.7895 20.3859 25.5223 20.3859ZM25.5223 17.6699C25.2105 17.6699 24.9878 17.4472 24.9878 17.1356V16.0225C24.9878 15.7108 25.2105 15.4882 25.5223 15.4882C25.8341 15.4882 26.0568 15.7108 26.0568 16.0225V17.1356C26.0568 17.4472 25.7895 17.6699 25.5223 17.6699ZM25.5223 14.5086C25.2105 14.5086 24.9878 14.286 24.9878 13.9743V12.8612C24.9878 12.5495 25.2105 12.3269 25.5223 12.3269C25.8341 12.3269 26.0568 12.5495 26.0568 12.8612V13.9743C26.0568 14.286 25.7895 14.5086 25.5223 14.5086Z" fill="#20A0D8"/>
<path d="M41.0673 14.954C40.8891 14.954 40.7555 14.8649 40.6218 14.7314L38.9738 12.4161L37.3703 14.7314C37.1921 14.954 36.8804 15.043 36.6131 14.8649C36.3904 14.6868 36.3013 14.3752 36.4795 14.108L38.5729 11.1694C38.662 11.0358 38.8402 10.9468 39.0183 10.9468C39.1965 10.9468 39.3747 11.0358 39.4638 11.1694L41.5572 14.108C41.7354 14.3307 41.6908 14.6868 41.4236 14.8649C41.29 14.9095 41.2009 14.954 41.0673 14.954Z" fill="#20A0D8"/>
<path d="M9.93274 14.954C9.84366 14.954 9.71003 14.9094 9.62095 14.8649C9.39824 14.6868 9.30916 14.3751 9.48733 14.108L11.5808 11.1694C11.7589 10.9022 12.2489 10.9022 12.4716 11.1694L14.5651 14.108C14.7432 14.3306 14.6987 14.6868 14.4314 14.8649C14.2087 15.043 13.8524 14.9985 13.6742 14.7313L12.0262 12.3715L10.3782 14.7313C10.2891 14.8649 10.1109 14.954 9.93274 14.954Z" fill="#20A0D8"/>
<path d="M38.9738 20.3859C38.662 20.3859 38.4393 20.1632 38.4393 19.8516V19.1837C38.4393 18.872 38.662 18.6494 38.9738 18.6494C39.2856 18.6494 39.5083 18.872 39.5083 19.1837V19.8516C39.5083 20.1632 39.2856 20.3859 38.9738 20.3859ZM38.9738 17.6699C38.662 17.6699 38.4393 17.4472 38.4393 17.1356V16.0225C38.4393 15.7108 38.662 15.4882 38.9738 15.4882C39.2856 15.4882 39.5083 15.7108 39.5083 16.0225V17.1356C39.5083 17.4472 39.2856 17.6699 38.9738 17.6699ZM38.9738 14.5086C38.662 14.5086 38.4393 14.286 38.4393 13.9743V12.8612C38.4393 12.5495 38.662 12.3269 38.9738 12.3269C39.2856 12.3269 39.5083 12.5495 39.5083 12.8612V13.9743C39.5083 14.286 39.2856 14.5086 38.9738 14.5086Z" fill="#20A0D8"/>
<path d="M12.0262 20.3859C11.7144 20.3859 11.4917 20.1632 11.4917 19.8516V19.1837C11.4917 18.872 11.7144 18.6494 12.0262 18.6494C12.338 18.6494 12.5607 18.872 12.5607 19.1837V19.8516C12.5607 20.1632 12.338 20.3859 12.0262 20.3859ZM12.0262 17.6699C11.7144 17.6699 11.4917 17.4472 11.4917 17.1356V16.0225C11.4917 15.7108 11.7144 15.4882 12.0262 15.4882C12.338 15.4882 12.5607 15.7108 12.5607 16.0225V17.1356C12.5607 17.4472 12.338 17.6699 12.0262 17.6699ZM12.0262 14.5086C11.7144 14.5086 11.4917 14.286 11.4917 13.9743V12.8612C11.4917 12.5495 11.7144 12.3269 12.0262 12.3269C12.338 12.3269 12.5607 12.5495 12.5607 12.8612V13.9743C12.5607 14.286 12.338 14.5086 12.0262 14.5086Z" fill="#20A0D8"/>
<path d="M4.32052 28.6229C4.18689 28.6229 4.09781 28.5784 3.96418 28.4894C2.09344 26.9755 1.64803 24.304 1.60349 22.345C1.60349 21.8107 1.82619 21.3209 2.18252 21.0092C2.5834 20.653 3.07335 20.5195 3.60785 20.6085C7.61659 21.2318 18.8856 21.8997 25.4332 21.8997C32.0253 21.8997 43.2498 21.2318 47.2585 20.6085C47.793 20.5195 48.283 20.6976 48.6838 21.0092C49.0847 21.3654 49.3074 21.8552 49.2629 22.345C49.2183 24.304 48.7729 26.9755 46.9022 28.4894C46.6795 28.6675 46.3231 28.6229 46.145 28.4003C45.9668 28.1777 46.0113 27.8215 46.2341 27.6434C47.8821 26.3077 48.1493 23.7252 48.1939 22.3004C48.1939 22.0778 48.1048 21.8997 47.9712 21.7661C47.8375 21.6326 47.6148 21.588 47.3921 21.588C43.3389 22.2114 32.0253 22.8793 25.3886 22.8793C18.752 22.8793 7.57204 22.3004 3.51877 21.6326C3.3406 21.588 3.1179 21.6771 2.93973 21.8107C2.80611 21.9442 2.71702 22.1223 2.71702 22.345C2.76156 23.7698 3.02881 26.3522 4.67685 27.6879C4.89955 27.866 4.9441 28.2222 4.76593 28.4448C4.63231 28.5784 4.49868 28.6229 4.32052 28.6229Z" fill="#20A0D8"/>
<path d="M25.5223 10.0117C20.1773 10.0117 9.30918 9.16571 4.89957 8.80951C3.38516 8.67594 2.00437 7.74092 1.38079 6.36066C0.757211 5.02492 0.267255 3.3775 0.0445473 1.55199C-0.0445356 1.24032 0.178172 0.97317 0.445421 0.928646C0.757211 0.884121 1.02446 1.10674 1.069 1.37389C1.33625 3.11035 1.73712 4.62419 2.31616 5.87088C2.80612 6.89495 3.83057 7.60735 4.98865 7.6964C9.39826 8.05259 20.1773 8.89856 25.5223 8.89856C30.8673 8.89856 41.6463 8.05259 46.0559 7.6964C47.214 7.60735 48.2384 6.89495 48.7284 5.87088C49.3074 4.62419 49.7528 3.11035 49.9756 1.37389C50.0201 1.06222 50.2873 0.884121 50.5991 0.928646C50.9109 0.97317 51.0891 1.24032 51.0445 1.55199C50.7773 3.3775 50.3319 5.02492 49.7083 6.36066C49.0402 7.74092 47.7039 8.67594 46.1895 8.80951C41.6908 9.16571 30.8673 10.0117 25.5223 10.0117Z" fill="#20A0D8"/>
<path d="M29.6646 22.8793C29.3974 22.8793 29.1301 22.6566 29.1301 22.3895V21.8552C29.0856 20.564 30.0655 19.4954 31.3572 19.4509L33.9406 19.3618C35.2323 19.3173 36.3013 20.2968 36.3904 21.588V22.1223C36.3904 22.434 36.1677 22.6566 35.8559 22.6566C35.5886 22.6566 35.3214 22.434 35.3214 22.1223V21.588C35.2768 20.8756 34.6978 20.3414 33.9851 20.3859L31.4017 20.4749C30.6891 20.5195 30.1546 21.0983 30.1991 21.8107L30.2437 22.345C30.2437 22.6121 29.9764 22.8793 29.6646 22.8793C29.7092 22.8793 29.6646 22.8793 29.6646 22.8793Z" fill="#20A0D8"/>
<path d="M21.3354 22.8793C21.0236 22.8793 20.8009 22.6121 20.8009 22.3004L20.8454 21.7661C20.89 21.0537 20.3109 20.4749 19.6428 20.4749L17.0594 20.3859C16.3467 20.3414 15.7677 20.9202 15.7231 21.588V22.1223C15.7231 22.434 15.4559 22.6566 15.1886 22.6566C14.8769 22.6566 14.6541 22.3895 14.6541 22.1223V21.588C14.6987 20.2968 15.8122 19.3173 17.1039 19.3618L19.6873 19.4509C20.979 19.4954 21.9589 20.6085 21.9144 21.8552L21.8699 22.3895C21.8699 22.6566 21.6472 22.8793 21.3354 22.8793Z" fill="#20A0D8"/>
<path d="M41.9581 22.2114C41.6908 22.2114 41.4236 21.9888 41.4236 21.6771L41.3791 20.8312C41.3345 19.5845 42.3144 18.5159 43.5616 18.4714L45.2542 18.3823C45.8777 18.3378 46.4568 18.5604 46.9022 19.0056C47.3476 19.4064 47.6149 19.9852 47.6594 20.6085V21.0983C47.6594 21.41 47.4367 21.6326 47.1694 21.6771C46.8577 21.6771 46.6349 21.4545 46.5904 21.1874V20.6976C46.5904 20.3859 46.4568 20.0742 46.1895 19.8516C45.9668 19.629 45.6105 19.4954 45.2987 19.5399L43.6061 19.629C42.938 19.6735 42.4481 20.2078 42.4481 20.8757L42.4926 21.7217C42.4926 21.9888 42.2699 22.2114 41.9581 22.2114Z" fill="#20A0D8"/>
<path d="M9.08647 22.2115C9.08647 22.2115 9.04193 22.2115 9.08647 22.2115C8.77468 22.2115 8.55197 21.9444 8.55197 21.6772L8.59652 20.8313C8.64106 20.1634 8.10656 19.6291 7.43844 19.5846L5.74586 19.4955C5.43407 19.4955 5.07774 19.5846 4.85503 19.8072C4.63232 20.0298 4.45416 20.3415 4.45416 20.6532V21.1429C4.45416 21.4546 4.18691 21.6772 3.87512 21.6327C3.56333 21.6327 3.34062 21.3656 3.38516 21.0539V20.5641C3.4297 19.9408 3.69695 19.362 4.14237 18.9612C4.58778 18.5605 5.16682 18.3379 5.7904 18.3379L7.48298 18.4269C8.73014 18.4715 9.71005 19.5401 9.66551 20.7867L9.62097 21.6327C9.57643 21.9889 9.35372 22.2115 9.08647 22.2115Z" fill="#20A0D8"/>
</g>
<defs>
<clipPath id="clip0_37_661">
<rect width="51" height="37" fill="white" transform="translate(0 0.928711)"/>
</clipPath>
</defs>
</svg>
