<svg width="50" height="52" viewBox="0 0 50 52" fill="none" xmlns="http://www.w3.org/2000/svg">
<g clip-path="url(#clip0_37_563)">
<path d="M25.4667 37.0051H2.88889C2.62222 37.0051 2.4 36.7811 2.35555 36.5122L0.133331 16.7486C-0.17778 15.3593 0.133331 13.9252 1.02222 12.8496C1.91111 11.7292 3.2 11.1018 4.62222 11.1018H23.7333C25.1556 11.1018 26.4889 11.7292 27.3333 12.8496C28.2222 13.97 28.5333 15.4041 28.2222 16.7486L26 36.5122C25.9556 36.7811 25.7333 37.0051 25.4667 37.0051ZM3.33333 35.9296H24.9778L27.1556 16.6141V16.5693C27.4222 15.4937 27.1556 14.3733 26.4889 13.5218C25.8222 12.6703 24.8 12.1774 23.7333 12.1774H4.62222C3.51111 12.1774 2.53333 12.6703 1.86666 13.5218C1.2 14.3733 0.933331 15.4937 1.2 16.5693V16.6141L3.33333 35.9296Z" fill="#20A0D8"/>
<path d="M27.7333 51.8839H0.577767C0.266656 51.8839 0.0444336 51.6598 0.0444336 51.3461V39.3356C0.0444336 37.4533 1.55554 35.8848 3.46666 35.8848H24.8889C26.7555 35.8848 28.3111 37.4085 28.3111 39.3356V51.3461C28.2667 51.6598 28.0444 51.8839 27.7333 51.8839ZM1.1111 50.8083H27.2V39.3356C27.2 38.0359 26.1333 36.9603 24.8444 36.9603H3.46666C2.17777 36.9603 1.1111 38.0359 1.1111 39.3356V50.8083Z" fill="#20A0D8"/>
<path d="M21.6444 51.8838H6.66666C6.35555 51.8838 6.13333 51.6597 6.13333 51.346V46.7748C6.13333 46.4611 6.35555 46.2371 6.66666 46.2371H21.6444C21.9556 46.2371 22.1778 46.4611 22.1778 46.7748V51.346C22.1778 51.6597 21.9556 51.8838 21.6444 51.8838ZM7.2 50.8082H21.1111V47.3126H7.2V50.8082Z" fill="#20A0D8"/>
<path d="M17.4667 49.6432H10.8889C10.5778 49.6432 10.3556 49.4191 10.3556 49.1054C10.3556 48.7917 10.5778 48.5676 10.8889 48.5676H17.4222C17.7333 48.5676 17.9556 48.7917 17.9556 49.1054C17.9556 49.4191 17.7333 49.6432 17.4667 49.6432Z" fill="#20A0D8"/>
<path d="M21.6444 14.5526H6.66666C6.35555 14.5526 6.13333 14.3285 6.13333 14.0148C6.13333 13.7011 6.4 13.4771 6.66666 13.4771H21.6444C21.9556 13.4771 22.1778 13.7011 22.1778 14.0148C22.1778 14.3285 21.9556 14.5526 21.6444 14.5526Z" fill="#20A0D8"/>
<path d="M9.11111 44.8477C7.33334 44.8477 5.86667 43.3688 5.86667 41.5762C5.86667 39.7836 7.33334 38.3047 9.11111 38.3047C10.8889 38.3047 12.3556 39.7836 12.3556 41.5762C12.3556 43.3688 10.8889 44.8477 9.11111 44.8477ZM9.11111 39.3803C7.91111 39.3803 6.93334 40.3662 6.93334 41.5762C6.93334 42.7862 7.91111 43.7722 9.11111 43.7722C10.3111 43.7722 11.2889 42.7862 11.2889 41.5762C11.2889 40.3662 10.3111 39.3803 9.11111 39.3803Z" fill="#20A0D8"/>
<path d="M9.11112 42.114C8.80001 42.114 8.57779 41.8899 8.57779 41.5762V38.8425C8.57779 38.5288 8.80001 38.3047 9.11112 38.3047C9.42223 38.3047 9.64446 38.5288 9.64446 38.8425V41.5762C9.64446 41.8899 9.42223 42.114 9.11112 42.114Z" fill="#20A0D8"/>
<path d="M21.6445 40.7697H16.1333C15.8222 40.7697 15.6 40.5456 15.6 40.2319C15.6 39.9182 15.8222 39.6941 16.1333 39.6941H21.6889C22 39.6941 22.2222 39.9182 22.2222 40.2319C22.2222 40.5456 21.9556 40.7697 21.6445 40.7697Z" fill="#20A0D8"/>
<path d="M21.6445 43.817H16.1333C15.8222 43.817 15.6 43.5929 15.6 43.2792C15.6 42.9655 15.8222 42.7415 16.1333 42.7415H21.6889C22 42.7415 22.2222 42.9655 22.2222 43.2792C22.2222 43.5929 21.9556 43.817 21.6445 43.817Z" fill="#20A0D8"/>
<path d="M27.7778 16.6141H0.533333C0.266667 16.6141 0 16.3453 0 16.0764C0 15.8075 0.222222 15.5386 0.533333 15.5386H27.7778C28.0889 15.5386 28.3111 15.7627 28.3111 16.0764C28.3111 16.3901 28.0889 16.6141 27.7778 16.6141Z" fill="#20A0D8"/>
<path d="M5.73335 34.0473C5.42223 34.0473 5.20001 33.8232 5.20001 33.5095V18.7204C5.20001 18.4067 5.42223 18.1826 5.73335 18.1826C6.04446 18.1826 6.26668 18.4067 6.26668 18.7204V33.5095C6.26668 33.7784 6.04446 34.0473 5.73335 34.0473Z" fill="#20A0D8"/>
<path d="M10.4444 19.796H8.3111C7.99999 19.796 7.77777 19.572 7.77777 19.2582C7.77777 18.9445 7.99999 18.7205 8.3111 18.7205H10.4444C10.7555 18.7205 10.9778 18.9445 10.9778 19.2582C10.9778 19.572 10.7555 19.796 10.4444 19.796Z" fill="#20A0D8"/>
<path d="M10.4444 23.1124H8.3111C7.99999 23.1124 7.77777 22.8884 7.77777 22.5747C7.77777 22.2609 7.99999 22.0369 8.3111 22.0369H10.4444C10.7555 22.0369 10.9778 22.2609 10.9778 22.5747C10.9778 22.8884 10.7555 23.1124 10.4444 23.1124Z" fill="#20A0D8"/>
<path d="M10.4444 26.4735H8.3111C7.99999 26.4735 7.77777 26.2494 7.77777 25.9357C7.77777 25.622 7.99999 25.3979 8.3111 25.3979H10.4444C10.7555 25.3979 10.9778 25.622 10.9778 25.9357C10.9778 26.2494 10.7555 26.4735 10.4444 26.4735Z" fill="#20A0D8"/>
<path d="M10.4444 29.7899H8.3111C7.99999 29.7899 7.77777 29.5658 7.77777 29.2521C7.77777 28.9384 7.99999 28.7144 8.3111 28.7144H10.4444C10.7555 28.7144 10.9778 28.9384 10.9778 29.2521C10.9778 29.5658 10.7555 29.7899 10.4444 29.7899Z" fill="#20A0D8"/>
<path d="M10.4444 33.1061H8.3111C7.99999 33.1061 7.77777 32.882 7.77777 32.5683C7.77777 32.2546 7.99999 32.0305 8.3111 32.0305H10.4444C10.7555 32.0305 10.9778 32.2546 10.9778 32.5683C10.9778 32.882 10.7555 33.1061 10.4444 33.1061Z" fill="#20A0D8"/>
<path d="M48 44.4892H42.2222C41.9111 44.4892 41.6889 44.2652 41.6889 43.9514V20.6474C41.6889 19.3926 42.7111 18.3618 43.9556 18.3618H46.1333C47.4222 18.3618 48.4889 19.4374 48.4889 20.737V43.9514C48.5333 44.2652 48.2667 44.4892 48 44.4892ZM42.7556 43.4137H47.4667V20.7819C47.4667 20.0648 46.8889 19.4822 46.1778 19.4822H44C43.3333 19.4822 42.8 20.02 42.8 20.6922V43.4137H42.7556Z" fill="#20A0D8"/>
<path d="M49.4667 51.9286H40.7556C40.4444 51.9286 40.2222 51.7045 40.2222 51.3908V45.7441C40.2222 44.4893 41.2445 43.4585 42.4889 43.4585H48C49.1111 43.4585 50 44.3548 50 45.4752V51.3908C50 51.6597 49.7333 51.9286 49.4667 51.9286ZM41.2889 50.853H48.9333V45.4752C48.9333 44.9374 48.5333 44.5341 48 44.5341H42.4889C41.8222 44.5341 41.2889 45.0719 41.2889 45.7441V50.853Z" fill="#20A0D8"/>
<path d="M42.2222 27.3699C42.1333 27.3699 42.0889 27.3699 42 27.325C41.7333 27.1906 41.6 26.8769 41.7333 26.608C42.8444 24.1431 45.2889 22.5298 48 22.5298C48.3111 22.5298 48.5333 22.7539 48.5333 23.0676C48.5333 23.3813 48.3111 23.6054 48 23.6054C45.7333 23.6054 43.6444 24.9498 42.7111 27.0113C42.6222 27.2802 42.4444 27.3699 42.2222 27.3699Z" fill="#20A0D8"/>
<path d="M46.3556 29.4763C46.3556 28.804 45.7778 28.2214 45.1111 28.2214C44.4444 28.2214 43.8667 28.804 43.8667 29.4763C43.8667 30.1485 44.4444 30.7311 45.1111 30.7311C45.7778 30.7311 46.3556 30.1485 46.3556 29.4763Z" fill="#20A0D8"/>
<path d="M46.3556 33.7336C46.3556 33.0614 45.7778 32.4788 45.1111 32.4788C44.4444 32.4788 43.8667 33.0614 43.8667 33.7336C43.8667 34.4058 44.4444 34.9884 45.1111 34.9884C45.7778 34.9884 46.3556 34.4058 46.3556 33.7336Z" fill="#20A0D8"/>
<path d="M45.1111 19.4375C44.8 19.4375 44.5778 19.2134 44.5778 18.8997V10.564C44.5778 10.1607 44.6667 9.71253 44.8 9.30919L45.9556 6.03766C46.0889 5.5895 45.9556 5.14135 45.6 4.82764L41.8667 1.86982C41.6445 1.69056 41.6 1.33204 41.7778 1.10796C41.9556 0.883881 42.3111 0.839066 42.5333 1.01833L46.2667 3.97615C46.9778 4.55875 47.2889 5.49987 46.9778 6.39618L45.8222 9.66771C45.7333 9.9366 45.6889 10.2503 45.6889 10.564V18.8997C45.6445 19.2134 45.3778 19.4375 45.1111 19.4375Z" fill="#20A0D8"/>
<path d="M40.7555 50.674H33.6C33.2889 50.674 33.0667 50.4499 33.0667 50.1362C33.0667 49.8225 33.2889 49.5984 33.6 49.5984H40.7555C41.0666 49.5984 41.2889 49.8225 41.2889 50.1362C41.2889 50.4499 41.0666 50.674 40.7555 50.674Z" fill="#20A0D8"/>
<path d="M35.5555 45.4306H33.6C33.2889 45.4306 33.0667 45.2065 33.0667 44.8928C33.0667 44.5791 33.2889 44.355 33.6 44.355H35.5555C35.8666 44.355 36.0889 44.5791 36.0889 44.8928C36.0889 45.2065 35.8666 45.4306 35.5555 45.4306Z" fill="#20A0D8"/>
<path d="M35.5556 40.1871H27.7333C27.4222 40.1871 27.2 39.9631 27.2 39.6494C27.2 39.3357 27.4222 39.1116 27.7333 39.1116H35.5556C35.8667 39.1116 36.0889 39.3357 36.0889 39.6494C36.0889 39.9631 35.8667 40.1871 35.5556 40.1871Z" fill="#20A0D8"/>
<path d="M35.5555 45.4304C35.2444 45.4304 35.0222 45.2063 35.0222 44.8926C35.0222 44.5789 35.2444 44.3548 35.5555 44.3548C36.7111 44.3548 37.6 43.4137 37.6 42.2933C37.6 41.1281 36.6667 40.2318 35.5555 40.2318C35.2444 40.2318 35.0222 40.0077 35.0222 39.694C35.0222 39.3803 35.2444 39.1562 35.5555 39.1562C37.2889 39.1562 38.6667 40.5903 38.6667 42.2933C38.6667 43.9963 37.2889 45.4304 35.5555 45.4304Z" fill="#20A0D8"/>
<path d="M33.6 50.6738C31.8667 50.6738 30.4889 49.2397 30.4889 47.5367C30.4889 45.8338 31.9111 44.3997 33.6 44.3997C33.9111 44.3997 34.1333 44.6237 34.1333 44.9374C34.1333 45.2512 33.9111 45.4752 33.6 45.4752C32.4444 45.4752 31.5556 46.4164 31.5556 47.5367C31.5556 48.7019 32.4889 49.5983 33.6 49.5983C33.9111 49.5983 34.1333 49.8223 34.1333 50.136C34.1333 50.4497 33.9111 50.6738 33.6 50.6738Z" fill="#20A0D8"/>
<path d="M42.8 49.6431C42.4889 49.6431 42.2667 49.4191 42.2667 49.1054V46.8198C42.2667 46.5061 42.4889 46.282 42.8 46.282C43.1111 46.282 43.3333 46.5061 43.3333 46.8198V49.1054C43.3333 49.3743 43.0667 49.6431 42.8 49.6431Z" fill="#20A0D8"/>
</g>
<defs>
<clipPath id="clip0_37_563">
<rect width="50" height="51" fill="white" transform="translate(0 0.928711)"/>
</clipPath>
</defs>
</svg>
