<svg width="14" height="13" viewBox="0 0 14 13" fill="none" xmlns="http://www.w3.org/2000/svg">
<g clip-path="url(#clip0_6_203)">
<path d="M13.1462 9.4628L11.332 7.78816C10.6841 7.19008 9.58258 7.42933 9.32341 8.20682C9.12903 8.74512 8.48111 9.04416 7.89798 8.92452C6.60213 8.62548 4.85273 7.07046 4.52877 5.81448C4.33439 5.27618 4.72315 4.6781 5.30628 4.4987C6.14858 4.25946 6.40775 3.24272 5.75983 2.64464L3.94564 0.97C3.4273 0.551341 2.64979 0.551341 2.19624 0.97L0.965185 2.10636C-0.265872 3.30253 1.09477 6.47238 4.14001 9.28337C7.18526 12.0944 10.6193 13.4102 11.9151 12.214L13.1462 11.0776C13.5997 10.5992 13.5997 9.88146 13.1462 9.4628Z" fill="#1BA2C2"/>
</g>
<defs>
<clipPath id="clip0_6_203">
<rect width="13" height="12" fill="white" transform="translate(0.5 0.656006)"/>
</clipPath>
</defs>
</svg>
