<svg width="25" height="25" viewBox="0 0 25 25" fill="none" xmlns="http://www.w3.org/2000/svg">
<path d="M12.8104 13.6692C12.7904 13.6692 12.7604 13.6692 12.7404 13.6692C12.7104 13.6692 12.6704 13.6692 12.6404 13.6692C10.3704 13.5992 8.67041 11.8292 8.67041 9.64914C8.67041 7.42914 10.4804 5.61914 12.7004 5.61914C14.9204 5.61914 16.7304 7.42914 16.7304 9.64914C16.7204 11.8392 15.0104 13.5992 12.8404 13.6692C12.8204 13.6692 12.8204 13.6692 12.8104 13.6692ZM12.6904 7.10914C11.2904 7.10914 10.1604 8.24914 10.1604 9.63914C10.1604 11.0092 11.2304 12.1192 12.5904 12.1692C12.6204 12.1592 12.7204 12.1592 12.8204 12.1692C14.1604 12.0992 15.2104 10.9992 15.2204 9.63914C15.2204 8.24914 14.0904 7.10914 12.6904 7.10914Z" fill="#5B5B5B"/>
<path d="M12.6907 22.8893C10.0008 22.8893 7.43075 21.8893 5.44075 20.0693C5.26075 19.9093 5.18075 19.6693 5.20075 19.4393C5.33075 18.2493 6.07075 17.1393 7.30075 16.3193C10.2808 14.3393 15.1107 14.3393 18.0807 16.3193C19.3107 17.1493 20.0507 18.2493 20.1807 19.4393C20.2107 19.6793 20.1207 19.9093 19.9407 20.0693C17.9507 21.8893 15.3807 22.8893 12.6907 22.8893ZM6.77075 19.2393C8.43075 20.6293 10.5208 21.3893 12.6907 21.3893C14.8607 21.3893 16.9507 20.6293 18.6107 19.2393C18.4307 18.6293 17.9507 18.0393 17.2407 17.5593C14.7807 15.9193 10.6108 15.9193 8.13075 17.5593C7.42075 18.0393 6.95075 18.6293 6.77075 19.2393Z" fill="#5B5B5B"/>
<path d="M12.6899 22.8892C6.75994 22.8892 1.93994 18.0692 1.93994 12.1392C1.93994 6.20916 6.75994 1.38916 12.6899 1.38916C18.6199 1.38916 23.4399 6.20916 23.4399 12.1392C23.4399 18.0692 18.6199 22.8892 12.6899 22.8892ZM12.6899 2.88916C7.58994 2.88916 3.43994 7.03916 3.43994 12.1392C3.43994 17.2392 7.58994 21.3892 12.6899 21.3892C17.7899 21.3892 21.9399 17.2392 21.9399 12.1392C21.9399 7.03916 17.7899 2.88916 12.6899 2.88916Z" fill="#5B5B5B"/>
</svg>
