<svg width="16" height="16" viewBox="0 0 16 16" fill="none" xmlns="http://www.w3.org/2000/svg">
<path d="M7.66671 14.5C3.90004 14.5 0.833374 11.4333 0.833374 7.66665C0.833374 3.89998 3.90004 0.833313 7.66671 0.833313C11.4334 0.833313 14.5 3.89998 14.5 7.66665C14.5 11.4333 11.4334 14.5 7.66671 14.5ZM7.66671 1.83331C4.44671 1.83331 1.83337 4.45331 1.83337 7.66665C1.83337 10.88 4.44671 13.5 7.66671 13.5C10.8867 13.5 13.5 10.88 13.5 7.66665C13.5 4.45331 10.8867 1.83331 7.66671 1.83331Z" fill="#5B5B5B"/>
<path d="M14.6669 15.1666C14.5402 15.1666 14.4135 15.12 14.3135 15.02L12.9802 13.6866C12.7869 13.4933 12.7869 13.1733 12.9802 12.98C13.1735 12.7866 13.4935 12.7866 13.6869 12.98L15.0202 14.3133C15.2135 14.5066 15.2135 14.8266 15.0202 15.02C14.9202 15.12 14.7935 15.1666 14.6669 15.1666Z" fill="#5B5B5B"/>
</svg>
