<svg width="25" height="25" viewBox="0 0 25 25" fill="none" xmlns="http://www.w3.org/2000/svg">
<path d="M12.4797 21.8892C6.82974 21.8892 2.22974 17.2892 2.22974 11.6392C2.22974 5.98916 6.82974 1.38916 12.4797 1.38916C18.1297 1.38916 22.7297 5.98916 22.7297 11.6392C22.7297 17.2892 18.1297 21.8892 12.4797 21.8892ZM12.4797 2.88916C7.64974 2.88916 3.72974 6.81916 3.72974 11.6392C3.72974 16.4592 7.64974 20.3892 12.4797 20.3892C17.3097 20.3892 21.2297 16.4592 21.2297 11.6392C21.2297 6.81916 17.3097 2.88916 12.4797 2.88916Z" fill="#5B5B5B"/>
<path d="M22.9801 22.889C22.7901 22.889 22.6001 22.819 22.4501 22.669L20.4501 20.669C20.1601 20.379 20.1601 19.899 20.4501 19.609C20.7401 19.319 21.2201 19.319 21.5101 19.609L23.5101 21.609C23.8001 21.899 23.8001 22.379 23.5101 22.669C23.3601 22.819 23.1701 22.889 22.9801 22.889Z" fill="#5B5B5B"/>
</svg>
