<svg width="112" height="112" viewBox="0 0 112 112" fill="none" xmlns="http://www.w3.org/2000/svg">
<path d="M89.3585 82.8275C90.5576 81.3558 92.0304 80.5307 93.7769 80.3523C95.5156 80.1833 97.1258 80.7022 98.6072 81.9088C100.089 83.1154 100.922 84.5871 101.108 86.3239C101.287 88.0701 100.777 89.6791 99.5775 91.1509C98.9625 91.9056 98.2475 92.4847 97.4323 92.8879C96.6188 93.3084 95.7673 93.5251 94.8776 93.5381C93.9802 93.5606 93.1047 93.3732 92.2509 92.9761L93.2771 91.7166C94.2094 92.0365 95.1245 92.0598 96.0221 91.7865C96.9198 91.5132 97.6992 90.9708 98.3602 90.1595C99.2673 89.0462 99.6449 87.8313 99.493 86.5149C99.343 85.2155 98.6971 84.1008 97.5553 83.1709C96.423 82.2486 95.2054 81.8454 93.9023 81.9612C92.5916 82.0865 91.4827 82.7057 90.5757 83.819C89.8993 84.6492 89.5235 85.5439 89.4485 86.5029C89.3829 87.4697 89.6285 88.3917 90.1853 89.269L89.1476 90.5426C88.2553 89.345 87.8287 88.048 87.8677 86.6514C87.9084 85.272 88.4053 83.9974 89.3585 82.8275Z" fill="#5B5B5B"/>
<path d="M71.4919 96.8146L72.8908 95.9883L79.4002 103.74L78.292 93.1797L78.6535 92.9662L87.3598 99.0173L83.7204 89.5918L85.135 88.7563L89.78 100.853L88.4597 101.632L80.0405 95.7085L81.1666 105.94L79.8148 106.739L71.4919 96.8146Z" fill="#5B5B5B"/>
<path d="M59.084 100.785C60.1314 99.3443 61.61 98.4682 63.5199 98.1567C65.4177 97.8472 67.0922 98.2091 68.5432 99.2424C69.9942 100.276 70.8715 101.723 71.1752 103.585C71.4808 105.458 71.1099 107.115 70.0625 108.556C69.0171 110.009 67.5454 110.89 65.6476 111.199C63.7377 111.511 62.0573 111.15 60.6063 110.117C59.1553 109.083 58.277 107.63 57.9713 105.756C57.6657 103.883 58.0366 102.226 59.084 100.785ZM67.5723 100.547C66.4686 99.7533 65.202 99.4729 63.7726 99.706C62.3312 99.941 61.2185 100.603 60.4344 101.693C59.6402 102.796 59.3597 104.063 59.5929 105.492C59.826 106.921 60.4935 108.027 61.5952 108.809C62.6869 109.605 63.9534 109.885 65.3949 109.65C66.8242 109.417 67.936 108.749 68.7301 107.645C69.5123 106.544 69.7878 105.284 69.5566 103.867C69.3254 102.45 68.6639 101.343 67.5723 100.547Z" fill="#5B5B5B"/>
<path d="M44.4807 110.81L44.6706 109.326L48.5276 109.819L49.9584 98.6294L51.5519 98.8331L50.1212 110.022L53.9782 110.515L53.7884 112L44.4807 110.81Z" fill="#5B5B5B"/>
<path d="M35.5988 107.995C34.4739 107.563 33.6761 106.84 33.2052 105.825C32.7231 104.806 32.6913 103.751 33.11 102.66C33.5286 101.57 34.2581 100.807 35.2985 100.372C36.3275 99.9326 37.4044 99.9287 38.5293 100.36L41.3244 101.433L42.9728 97.1387L44.4556 97.7078L39.8766 109.636L35.5988 107.995ZM38.0585 101.842C37.3313 101.563 36.6497 101.555 36.0138 101.819C35.3622 102.091 34.9055 102.567 34.6439 103.249C34.3822 103.93 34.4049 104.584 34.7121 105.211C35.0035 105.844 35.5128 106.3 36.24 106.579L38.9499 107.619L40.7684 102.882L38.0585 101.842Z" fill="#5B5B5B"/>
<path d="M32.3078 93.8766L27.5217 90.5276L28.4009 89.2714L34.4883 93.5309L27.1612 103.999L21.2383 99.8546L22.1071 98.6134L26.7287 101.847L29.0001 98.6022L24.7674 95.6404L25.6152 94.4291L29.848 97.3909L32.3078 93.8766Z" fill="#5B5B5B"/>
<path d="M11.3901 89.943L12.5047 88.9439L15.1003 91.8387L23.5007 84.3088L24.5731 85.5048L16.1727 93.0347L18.7684 95.9295L17.6538 96.9286L11.3901 89.943Z" fill="#5B5B5B"/>
<path d="M10.4886 79.7925C10.1027 79.0743 9.90969 78.3423 9.90955 77.5964C9.90942 76.8505 10.1017 76.1671 10.4864 75.546C10.8604 74.9307 11.3958 74.4359 12.0926 74.0616C13.1326 73.5029 14.1886 73.3984 15.2607 73.748C16.327 74.0869 17.1539 74.803 17.7414 75.8964L19.9533 80.0127L8.69619 86.0598L7.9445 84.6609L11.9488 82.5099L10.4886 79.7925ZM16.4832 76.7174C16.0973 75.9992 15.5636 75.533 14.8821 75.3189C14.1948 75.0941 13.5189 75.1602 12.8542 75.5173C12.1787 75.8801 11.7505 76.4072 11.5693 77.0985C11.3717 77.7849 11.4658 78.4871 11.8517 79.2053L13.2514 81.8102L17.8829 79.3222L16.4832 76.7174Z" fill="#5B5B5B"/>
<path d="M6.29055 59.1418C6.48039 58.5214 6.83525 58.0118 7.35512 57.6127C7.87498 57.2137 8.47976 56.9768 9.16943 56.9021C10.1616 56.7946 11.0365 57.0731 11.794 57.7377C12.5395 58.4035 12.9712 59.2808 13.0892 60.3696L13.6399 65.4507L0.935325 66.8272L0.392519 61.8187C0.279762 60.7783 0.495867 59.892 1.04083 59.1598C1.58449 58.4154 2.32215 57.9928 3.25381 57.8918C3.82249 57.8302 4.38876 57.9158 4.9526 58.1484C5.51514 58.369 5.96112 58.7001 6.29055 59.1418ZM3.64664 59.4833C3.28365 59.5226 2.9668 59.6488 2.69608 59.8617C2.42404 60.0625 2.22577 60.3227 2.10125 60.6422C1.96464 60.963 1.91665 61.3109 1.9573 61.6859L2.32703 65.0975L6.1384 64.6845L5.76669 61.2548C5.70638 60.6983 5.47441 60.2522 5.07078 59.9165C4.65373 59.57 4.17902 59.4256 3.64664 59.4833ZM11.5122 60.5589C11.444 59.9298 11.1873 59.4252 10.7421 59.045C10.297 58.6648 9.77188 58.5075 9.16691 58.5731C8.57403 58.6373 8.10089 58.9028 7.74749 59.3695C7.3941 59.8361 7.25149 60.384 7.31967 61.0131L7.69924 64.5154L11.8917 64.0612L11.5122 60.5589Z" fill="#5B5B5B"/>
<path d="M1.61891 42.5715L1.83342 41.4232L14.3951 43.7691L14.1001 45.3481L4.53532 43.5618L12.7628 52.5072L12.5617 53.5837L0 51.2378L0.291604 49.6768L9.78464 51.4496L1.61891 42.5715Z" fill="#5B5B5B"/>
<path d="M18.7538 31.0367L19.3888 29.8652L23 31.8223L22.2953 33.1221L20.0002 31.8783L15.4156 40.3351L17.7107 41.5789L17.0061 42.8788L13.3949 40.9217L13.8647 40.0551C13.8514 39.7988 13.7993 39.5629 13.7084 39.3476C13.6175 39.1322 13.4381 38.8758 13.1702 38.5784C12.8974 38.2644 12.578 37.9599 12.212 37.6646C11.8518 37.3587 11.3127 36.9488 10.5945 36.435C9.8656 35.9154 9.09102 35.378 8.27074 34.8227C7.45047 34.2674 6.3714 33.5511 5.03354 32.6738L8.83519 25.6612L18.7538 31.0367ZM7.05425 32.0872C9.93327 33.952 11.8897 35.3099 12.9234 36.1608C13.9465 37.006 14.5473 37.7745 14.7259 38.4665L17.9882 32.4488L9.3857 27.7866L7.05425 32.0872Z" fill="#5B5B5B"/>
<path d="M22.1283 26.7816L26.1834 22.5771L27.2872 23.6414L22.1297 28.989L12.931 20.1199L17.9491 14.9168L19.0398 15.9684L15.1242 20.0284L17.9758 22.7778L21.5619 19.0594L22.6264 20.0857L19.0402 23.8041L22.1283 26.7816Z" fill="#5B5B5B"/>
<path d="M37.6039 14.9637C37.1137 16.6761 36.0249 18.0058 34.3374 18.9528C32.6606 19.8938 30.9635 20.1276 29.2462 19.6541C27.5289 19.1805 26.2086 18.1214 25.2853 16.4767C24.356 14.8213 24.1364 13.1374 24.6266 11.425C25.1108 9.70202 26.1913 8.36998 27.8682 7.42892C29.5556 6.4819 31.258 6.24516 32.9753 6.71869C34.6926 7.19222 36.0159 8.25666 36.9452 9.91202C37.8745 11.5674 38.094 13.2513 37.6039 14.9637ZM29.7111 18.0954C31.0201 18.4632 32.3061 18.2927 33.569 17.5839C34.8425 16.8692 35.6609 15.8657 36.024 14.5734C36.3919 13.2646 36.2213 11.9788 35.5124 10.7161C34.8036 9.45335 33.7976 8.6434 32.4945 8.28625C31.1961 7.91254 29.9102 8.08305 28.6366 8.79778C27.3737 9.50655 26.5583 10.5153 26.1905 11.8242C25.8333 13.127 26.0061 14.4045 26.7091 15.6567C27.412 16.9088 28.4127 17.7217 29.7111 18.0954Z" fill="#5B5B5B"/>
<path d="M57.8284 11.11C56.622 12.4206 55.0524 13.1207 53.1193 13.2103C51.1985 13.2993 49.5769 12.7471 48.2545 11.5536C46.9321 10.3602 46.2272 8.82143 46.1399 6.93732C46.052 5.04106 46.6112 3.43762 47.8176 2.12702C49.0233 0.80426 50.5867 0.0983802 52.5075 0.00937864C54.4405 -0.0801863 56.0682 0.47175 57.3906 1.66519C58.713 2.85862 59.4182 4.40347 59.506 6.29974C59.5939 8.196 59.0347 9.79943 57.8284 11.11ZM49.3692 10.3691C50.3741 11.2849 51.5999 11.7093 53.0467 11.6422C54.5056 11.5746 55.6872 11.0448 56.5915 10.0527C57.5074 9.04794 57.9318 7.82229 57.8648 6.37578C57.7978 4.92927 57.2621 3.7542 56.2577 2.85057C55.2649 1.93422 54.0391 1.50985 52.5802 1.57744C51.1335 1.64447 49.9521 2.18039 49.0362 3.18517C48.1325 4.1894 47.7138 5.40869 47.7803 6.84304C47.8468 8.27739 48.3764 9.45275 49.3692 10.3691Z" fill="#5B5B5B"/>
<path d="M70.5352 15.6581C69.3569 15.1958 68.5303 14.4205 68.0554 13.3321C67.5804 12.2438 67.5786 11.0993 68.0499 9.89856L68.1432 9.66068L69.6047 10.2341L69.538 10.404C69.2223 11.2083 69.2115 11.9688 69.5055 12.6854C69.8039 13.3907 70.3383 13.8945 71.1087 14.1968C71.8451 14.4858 72.5591 14.4653 73.2508 14.1354C73.9538 13.8099 74.4609 13.2507 74.7721 12.4578L77.8665 4.57376L79.345 5.15387L76.2239 13.1058C75.7526 14.3066 74.9784 15.1466 73.9013 15.6259C72.8354 16.1097 71.7134 16.1204 70.5352 15.6581Z" fill="#5B5B5B"/>
<path d="M79.755 18.1756L84.5165 21.5595L83.6281 22.8093L77.572 18.5053L84.9755 8.09104L90.8678 12.2787L89.99 13.5135L85.3922 10.2459L83.0971 13.4743L87.3081 16.467L86.4514 17.6721L82.2404 14.6794L79.755 18.1756Z" fill="#5B5B5B"/>
<path d="M100.806 22.4293L99.6802 23.4162L97.1163 20.4932L88.6343 27.9311L87.5751 26.7235L96.0571 19.2856L93.4931 16.3626L94.6186 15.3757L100.806 22.4293Z" fill="#5B5B5B"/>
<path d="M105.487 30.1762C106.049 31.2416 106.173 32.3112 105.859 33.385C105.551 34.4695 104.88 35.2844 103.847 35.8297C102.814 36.3749 101.763 36.4688 100.693 36.1113C99.6293 35.7645 98.8162 35.0584 98.2538 33.993L96.8564 31.3456L92.7879 33.4926L92.0465 32.0882L103.348 26.1244L105.487 30.1762ZM99.5835 33.1881C99.9471 33.8769 100.455 34.3311 101.108 34.5508C101.777 34.7756 102.434 34.7176 103.08 34.3769C103.726 34.0361 104.14 33.5289 104.321 32.8554C104.518 32.187 104.435 31.5084 104.072 30.8197L102.717 28.253L98.2287 30.6215L99.5835 33.1881Z" fill="#5B5B5B"/>
<path d="M96.8063 42.2539L109.047 38.5862L109.503 40.1074L97.2622 43.7751L96.8063 42.2539Z" fill="#5B5B5B"/>
<path d="M99.124 55.0135L104.525 49.9802L104.359 48.2723L98.5266 48.8363L98.3738 47.2557L111.093 46.0259L111.246 47.6065L105.849 48.1283L106.013 49.8179L111.803 53.3658L112 55.4006L105.427 51.3416L99.3208 57.0483L99.124 55.0135Z" fill="#5B5B5B"/>
<circle cx="105" cy="69" r="2" fill="#5B5B5B"/>
</svg>
