<svg width="14" height="12" viewBox="0 0 14 12" fill="none" xmlns="http://www.w3.org/2000/svg">
<g clip-path="url(#clip0_6_200)">
<path d="M12.5555 0.278457L1.00908 4.71394C1.00908 4.71394 0.461302 4.89558 0.504434 5.23353C0.547566 5.57147 0.991826 5.72777 0.991826 5.72777L3.89461 6.68668L3.89893 6.6909V6.68668L10.8691 2.34835C10.8691 2.34835 11.2702 2.10757 11.2573 2.34835C11.2573 2.34835 11.3306 2.39059 11.1149 2.58913C10.8993 2.78767 5.63715 7.41747 5.63715 7.41747L5.62852 7.50618L10.3644 11.063C11.1537 11.401 11.4427 10.6955 11.4427 10.6955L13.5001 0.544586C13.5001 -0.131298 12.5512 0.278457 12.5555 0.278457Z" fill="#1393E2"/>
<path d="M7.43993 8.86642L5.56368 10.5435C5.56368 10.5435 5.41703 10.6533 5.25745 10.5857L5.61544 7.47241" fill="#1393E2"/>
</g>
<defs>
<clipPath id="clip0_6_200">
<rect width="13" height="11" fill="white" transform="translate(0.5 0.156006)"/>
</clipPath>
</defs>
</svg>
