<svg width="12" height="13" viewBox="0 0 12 13" fill="none" xmlns="http://www.w3.org/2000/svg">
<g clip-path="url(#clip0_6_196)">
<path d="M10.248 2.39929C9.12 1.2769 7.62 0.656006 6.024 0.656006C2.736 0.656006 0.048 3.31869 0.048 6.60227C0.048 7.65302 0.324 8.66795 0.84 9.57541L0 12.656L3.168 11.8321C4.044 12.3097 5.028 12.5605 6.024 12.5605C9.312 12.5605 12 9.8978 12 6.61421C12 5.01421 11.376 3.52168 10.248 2.39929ZM6.024 11.5456C5.136 11.5456 4.26 11.3068 3.492 10.853L3.312 10.7456L1.44 11.2471L1.944 9.42019L1.824 9.22914C1.332 8.44108 1.068 7.53362 1.068 6.60227C1.056 3.87989 3.288 1.65899 6.024 1.65899C7.356 1.65899 8.592 2.17242 9.54 3.10377C10.476 4.03511 10.992 5.2769 10.992 6.60227C10.992 9.32466 8.76 11.5456 6.024 11.5456ZM8.748 7.84407C8.604 7.77242 7.86 7.41421 7.728 7.36645C7.596 7.31869 7.488 7.29481 7.392 7.4381C7.296 7.58138 7.008 7.91571 6.924 8.02317C6.84 8.11869 6.744 8.13063 6.6 8.05899C6.456 7.98735 5.964 7.83213 5.4 7.31869C4.956 6.92466 4.656 6.43511 4.572 6.29183C4.488 6.14854 4.56 6.06496 4.632 5.99332C4.704 5.92168 4.776 5.81421 4.86 5.73063C4.932 5.64705 4.956 5.58735 5.004 5.47989C5.052 5.38436 5.028 5.28884 4.992 5.2172C4.956 5.14556 4.656 4.4172 4.536 4.11869C4.416 3.83213 4.296 3.86795 4.2 3.86795C4.116 3.86795 4.008 3.86795 3.912 3.86795C3.816 3.86795 3.648 3.90377 3.516 4.05899C3.384 4.20227 2.988 4.57242 2.988 5.30078C2.988 6.02914 3.528 6.73362 3.6 6.84108C3.672 6.9366 4.656 8.44108 6.156 9.08586C6.516 9.24108 6.792 9.32466 7.008 9.3963C7.368 9.50377 7.692 9.49183 7.944 9.45601C8.232 9.40824 8.832 9.0978 8.952 8.75153C9.072 8.40526 9.072 8.10675 9.036 8.04705C9 7.95153 8.904 7.91571 8.748 7.84407Z" fill="#33CE62"/>
</g>
<defs>
<clipPath id="clip0_6_196">
<rect width="12" height="12" fill="white" transform="translate(0 0.656006)"/>
</clipPath>
</defs>
</svg>
